<?xml version="1.0" encoding="utf-8"?>
<!-- Generator: Adobe Illustrator 23.1.0, SVG Export Plug-In . SVG Version: 6.00 Build 0)  -->
<svg version="1.1" id="Layer_1" xmlns="http://www.w3.org/2000/svg" xmlns:xlink="http://www.w3.org/1999/xlink" x="0px" y="0px"
	 viewBox="0 0 100 100" style="enable-background:new 0 0 100 100;" xml:space="preserve">
<style type="text/css">
	.st0{fill:#FEC24A;}
	.st1{fill:#231815;}
</style>
<g>
	<g>
		
			<rect x="19.3" y="17.1" transform="matrix(0.9333 -0.3592 0.3592 0.9333 -14.0232 21.4442)" class="st0" width="62.7" height="62.7"/>
	</g>
	<g>
		<rect x="16.5" y="14.3" class="st1" width="63.2" height="1"/>
	</g>
	<g>
		<rect x="84.4" y="11.8" class="st1" width="1" height="63.2"/>
	</g>
	<g>
		<rect x="28.3" y="78.4" class="st1" width="63.2" height="1"/>
	</g>
	<g>
		<rect x="20" y="20.4" class="st1" width="1" height="63.2"/>
	</g>
	<g>
		<path d="M22.3,47.7c0.1-0.3,0.1-0.6,0.2-0.9c0-0.3,0-0.6,0-1s0-0.7,0-1s0-0.7,0-1c0-0.1,0-0.2,0-0.3s0-0.2,0.1-0.2
			c0.1-0.2,0.3-0.3,0.5-0.5c0.3-0.2,0.5-0.3,0.8-0.4c0.3-0.1,0.6-0.2,0.9-0.3s0.5-0.1,0.7,0c0.3,0.1,0.6,0.2,0.9,0.3
			c0.3,0.2,0.5,0.4,0.7,0.6c0.2,0.2,0.4,0.5,0.5,0.8s0.2,0.6,0.3,0.9c0.1,0.5,0,1-0.3,1.5c-0.2,0.5-0.6,0.9-1.1,1.1
			c-0.4,0.2-0.7,0.4-1.1,0.5c-0.4,0.2-0.8,0.3-1.2,0.3c-0.3,0-0.5,0.1-0.6,0.2c-0.1,0.1-0.1,0.3-0.1,0.6s0.1,0.5,0.1,0.8
			s0.1,0.5,0.1,0.8c0,0.2,0,0.3-0.1,0.5c-0.1,0.1-0.2,0.2-0.4,0.3c-0.1,0-0.2,0-0.3,0c-0.1,0-0.1-0.1-0.2-0.1c0-0.1-0.1-0.1-0.1-0.2
			c0-0.1,0-0.2-0.1-0.2c-0.1-0.1-0.1-0.3-0.1-0.4c0-0.4-0.1-0.8-0.1-1.2C22.4,48.6,22.4,48.2,22.3,47.7z M23.7,46.1
			c0,0.3,0,0.5,0,0.7s0.1,0.3,0.1,0.3c0.1,0,0.2,0.1,0.3,0c0.2,0,0.4-0.1,0.7-0.1c0.2-0.1,0.4-0.1,0.6-0.2c0.2-0.1,0.3-0.2,0.5-0.3
			c1.1-0.4,1.5-1.2,1.1-2.2c-0.1-0.5-0.4-0.8-0.8-1s-0.8-0.3-1.3-0.2c-0.3,0.1-0.6,0.2-0.8,0.3s-0.3,0.2-0.5,0.4
			c-0.1,0.2-0.2,0.3-0.2,0.6c0,0.2,0,0.5,0,0.8c0,0.2,0,0.3,0,0.5C23.6,45.8,23.6,46,23.7,46.1z"/>
		<path d="M28.5,50.4c0-0.3,0-0.6,0.1-0.9c0.1-0.3,0.1-0.6,0.2-0.9c0.1-0.3,0.2-0.6,0.3-0.9c0.1-0.3,0.2-0.6,0.3-0.9
			c0.1-0.3,0.2-0.7,0.2-1c0.1-0.3,0.1-0.7,0.2-1s0.1-0.7,0.2-1s0.2-0.7,0.3-1c0.1-0.1,0.1-0.2,0.1-0.4s0.1-0.3,0.1-0.4
			s0.1-0.2,0.2-0.3s0.2-0.1,0.3-0.2c0.1,0,0.3,0,0.4,0s0.2,0.1,0.3,0.2c0.1,0.1,0.2,0.2,0.3,0.3c0.1,0.1,0.2,0.2,0.3,0.3
			c0.4,0.6,0.8,1.2,1.1,1.8c0.3,0.6,0.6,1.3,0.9,2c0.1,0.2,0.2,0.4,0.3,0.7c0.1,0.3,0.3,0.5,0.4,0.8s0.3,0.6,0.4,0.9
			c0.1,0.3,0.2,0.5,0.2,0.7c0,0.1,0,0.2,0.1,0.3c0,0.1,0.1,0.2,0.1,0.3s0,0.2,0,0.2c0,0.1-0.1,0.1-0.2,0.2c-0.1,0-0.2,0-0.3,0
			c-0.1,0-0.2-0.1-0.3-0.2s-0.1-0.2-0.2-0.2c0-0.1-0.1-0.2-0.1-0.3c0-0.3-0.1-0.5-0.2-0.8c-0.1-0.2-0.2-0.4-0.3-0.6
			c-0.2-0.2-0.3-0.3-0.5-0.3c-0.2-0.1-0.5-0.1-0.8,0c-0.4,0.1-0.8,0.1-1.2,0.1s-0.8,0-1.2,0c-0.2,0-0.4,0-0.5,0.1s-0.2,0.2-0.2,0.4
			c-0.1,0.3-0.2,0.6-0.2,0.9s-0.2,0.6-0.3,0.9c0,0.1-0.1,0.2-0.1,0.3c-0.1,0.1-0.2,0.2-0.3,0.1c-0.1,0-0.1,0-0.2-0.1
			s-0.1-0.1-0.1-0.1c0-0.1,0-0.1,0-0.2C28.5,50.5,28.5,50.5,28.5,50.4z M31.6,47.5c0.2,0,0.4-0.1,0.7-0.1c0.3,0,0.5-0.1,0.8-0.1
			c0.4,0,0.5-0.2,0.3-0.6c-0.3-0.5-0.6-1-0.8-1.5s-0.5-1-0.8-1.5c0,0-0.1-0.1-0.1-0.2c0-0.1-0.1-0.1-0.1-0.1l-0.1-0.1
			c0,0-0.1,0-0.2,0s-0.2,0.1-0.2,0.2c0,0.1-0.1,0.2-0.1,0.3c-0.1,0.5-0.2,0.9-0.3,1.3c-0.1,0.5-0.2,0.9-0.3,1.3
			c-0.1,0.4-0.1,0.7,0,0.8c0.1,0.2,0.4,0.2,0.7,0.2c0.1,0,0.1,0,0.2,0C31.4,47.5,31.5,47.5,31.6,47.5z"/>
		<path d="M38.2,47.6c0.1,0.3,0.1,0.6,0.2,0.9c0.1,0.3,0.1,0.6,0.2,0.9c0,0.1,0,0.2,0,0.3s0,0.2-0.1,0.3c0,0.1-0.1,0.2-0.2,0.2
			c-0.1,0.1-0.2,0.1-0.4,0.1c-0.2,0-0.3,0-0.3,0c-0.1,0-0.1-0.1-0.1-0.2c0-0.1,0-0.2,0-0.2c0-0.1,0-0.2,0-0.2
			c-0.1-0.5-0.2-1-0.3-1.6c-0.1-0.5-0.2-1-0.3-1.6c-0.1-0.5-0.2-1-0.3-1.6c-0.1-0.5-0.2-1-0.3-1.6c0-0.1,0-0.2,0-0.3s0-0.2,0.1-0.3
			c0-0.1,0.1-0.1,0.2-0.1s0.2,0.1,0.4,0.2c0.1,0.1,0.1,0.1,0.2,0.1s0.1,0,0.2,0l0.1-0.1l0.1-0.1c1.3-1,2.7-1.3,4.3-0.9
			c0.2,0,0.4,0.1,0.6,0.3c0.2,0.1,0.4,0.3,0.5,0.5c0.2,0.2,0.3,0.4,0.4,0.6c0.1,0.2,0.1,0.4,0.2,0.6c0,0.2,0,0.3-0.1,0.4
			c-0.1,0.1-0.2,0.2-0.3,0.3c-0.3,0.3-0.5,0.5-0.9,0.6c-0.3,0.2-0.6,0.3-0.9,0.5c-0.2,0.1-0.3,0.2-0.4,0.2c-0.1,0.1-0.2,0.2-0.2,0.3
			s0,0.2,0,0.3c0.1,0.1,0.2,0.2,0.3,0.4c0.4,0.4,0.7,0.8,1.1,1.2c0.3,0.4,0.7,0.8,1,1.2c0.2,0.2,0.3,0.4,0.3,0.5
			c0,0.2-0.1,0.3-0.3,0.5c-0.1,0.1-0.2,0.1-0.3,0.2c-0.1,0-0.2,0-0.2,0c-0.1,0-0.1-0.1-0.2-0.2c-0.1-0.1-0.1-0.2-0.2-0.2
			c-0.4-0.5-0.8-1-1.2-1.4c-0.4-0.5-0.8-1-1.2-1.5c-0.2-0.2-0.3-0.3-0.5-0.3s-0.4,0-0.6,0.1c-0.1,0-0.2,0.1-0.3,0.1
			c-0.1,0-0.1,0.1-0.2,0.2c-0.1,0.1-0.1,0.1-0.1,0.2C38.2,47.4,38.2,47.5,38.2,47.6z M37.6,44.3c0.1,0.4,0.1,0.8,0.2,1
			s0.2,0.4,0.3,0.5c0.1,0.1,0.3,0.1,0.5,0c0.2,0,0.5-0.1,0.8-0.3c0.5-0.2,0.9-0.3,1.3-0.6c0.4-0.2,0.9-0.4,1.3-0.6
			c0.1,0,0.1-0.1,0.2-0.1s0.1-0.1,0.2-0.1s0.1-0.1,0.1-0.2c0-0.1,0-0.2,0-0.3c-0.1-0.3-0.3-0.5-0.6-0.7c-0.3-0.1-0.6-0.2-1-0.2
			s-0.8,0-1.2,0.1c-0.4,0.1-0.8,0.2-1.1,0.3c-0.4,0.1-0.6,0.3-0.8,0.5c-0.1,0.1-0.2,0.2-0.2,0.3C37.6,44,37.6,44.1,37.6,44.3z"/>
		<path d="M54.4,46.9c0-0.3,0.1-0.5,0.1-0.8s0-0.5,0-0.8s0-0.5,0.1-0.8c0-0.3,0.1-0.5,0.1-0.8c0-0.1,0.1-0.3,0.1-0.4
			s0.1-0.3,0.1-0.4c0.1-0.1,0.2-0.3,0.3-0.4c0.1-0.1,0.3-0.1,0.4-0.1c0.2,0,0.3,0.2,0.3,0.3c0,0.2,0,0.3,0,0.4
			c0,0.3-0.1,0.5-0.1,0.8s-0.1,0.5-0.1,0.8c-0.1,0.2,0,0.4,0,0.6c0.1,0.1,0.3,0.2,0.6,0.2c0.5,0,1,0,1.4,0c0.5,0,1,0,1.5,0
			c0.3,0,0.4-0.1,0.6-0.2S60,45,60,44.8c0-0.3,0.1-0.5,0.1-0.8c0.1-0.3,0.1-0.5,0.2-0.8c0-0.1,0-0.2,0.1-0.3s0.1-0.2,0.1-0.2
			c0.1-0.1,0.1-0.1,0.2-0.2c0.1,0,0.2,0,0.3,0c0.1,0,0.2,0.1,0.3,0.1c0.1,0.1,0.1,0.1,0.1,0.2s0,0.2,0,0.3s0,0.2,0,0.3
			c-0.1,0.7-0.2,1.3-0.3,2s-0.2,1.3-0.3,2c0,0.2-0.1,0.5-0.1,0.7s0,0.5,0.1,0.7s0.1,0.3,0,0.4c-0.1,0.1-0.2,0.2-0.3,0.3
			c-0.1,0-0.1,0.1-0.2,0.1s-0.1,0.1-0.2,0.1s-0.1,0-0.2,0s-0.1,0-0.2,0s-0.1-0.1-0.2-0.1s-0.1-0.1-0.1-0.2c0-0.1,0-0.1,0-0.2
			c0-0.1,0-0.2,0-0.2c0-0.3,0.1-0.6,0.1-1c0-0.3,0.1-0.6,0.1-1c0-0.1,0-0.2,0-0.3s0-0.2-0.1-0.2s-0.1-0.1-0.1-0.2
			c-0.1,0-0.2,0-0.3,0c-0.2,0-0.4,0-0.6,0s-0.4,0-0.7,0s-0.4,0-0.7,0c-0.2,0-0.4,0-0.7,0.1c-0.3,0.1-0.4,0.2-0.5,0.3
			s-0.2,0.3-0.2,0.5c0,0.3,0,0.5-0.1,0.8c0,0.3-0.1,0.5-0.1,0.8c0,0.2,0,0.3-0.1,0.4c-0.1,0.1-0.1,0.2-0.2,0.2s-0.2,0.1-0.3,0.1
			c-0.1,0-0.2,0-0.3,0c-0.1,0-0.2,0-0.2-0.1c0,0-0.1-0.1-0.1-0.2c0-0.1,0-0.2,0-0.3s0-0.2,0-0.3c0-0.3,0-0.7,0-1
			C54.4,47.6,54.4,47.2,54.4,46.9z"/>
		<path d="M65.4,50.7c0.1-0.6,0-1.1-0.1-1.7c-0.1-0.5-0.3-1-0.6-1.4s-0.6-0.8-0.9-1.2c-0.4-0.4-0.8-0.8-1.2-1.1
			c-0.1-0.1-0.2-0.2-0.3-0.2c-0.1-0.1-0.2-0.2-0.3-0.3c-0.1-0.1-0.1-0.2-0.2-0.3c0-0.1,0-0.2,0.1-0.3s0.2-0.2,0.3-0.2s0.2,0,0.3,0.1
			s0.2,0.2,0.3,0.3c0.1,0.1,0.2,0.2,0.3,0.3c0.3,0.2,0.5,0.5,0.8,0.7s0.5,0.5,0.7,0.8c0.2,0.2,0.3,0.3,0.4,0.4s0.3,0.1,0.4,0.1
			s0.3-0.1,0.4-0.2s0.3-0.2,0.4-0.4c0.4-0.4,0.8-0.7,1.2-1.1c0.4-0.3,0.8-0.7,1.2-1c0.1-0.1,0.2-0.1,0.3-0.2
			c0.1-0.1,0.2-0.2,0.3-0.2s0.2-0.1,0.3-0.1c0.1,0,0.2,0.1,0.3,0.2c0.1,0.1,0.2,0.3,0.2,0.4c0,0.1-0.1,0.2-0.2,0.3s-0.2,0.1-0.3,0.2
			c-0.1,0.1-0.2,0.1-0.3,0.2c-0.3,0.3-0.7,0.6-1,1c-0.3,0.3-0.7,0.6-1.1,0.8c-0.3,0.2-0.5,0.4-0.7,0.6c-0.2,0.2-0.3,0.5-0.3,0.7
			C66,48.1,66,48.4,66,48.7s0,0.5,0.1,0.8c0,0.3,0,0.5,0.1,0.8s0.1,0.5,0.1,0.8c0.1,0.2,0.1,0.4,0,0.6c-0.1,0.2-0.2,0.2-0.5,0.3
			c-0.1,0-0.2,0-0.3-0.1c-0.1,0-0.1-0.1-0.2-0.2s0-0.1,0-0.3c0-0.1,0-0.2,0-0.3s0-0.1,0-0.2C65.4,50.8,65.4,50.7,65.4,50.7z"/>
		<path d="M70.5,45.7c0-0.5,0-1,0-1.5c0.1-0.5,0.1-1,0.1-1.5c0-0.4,0.2-0.6,0.7-0.6s1.1,0,1.6,0s1.1,0.1,1.6,0.2h0.1h0.1
			c0.1,0,0.1,0.1,0.2,0.1s0.1,0.1,0.2,0.1s0.1,0.1,0.1,0.1c0,0.1,0,0.1,0,0.2c0,0.2-0.1,0.3-0.2,0.3s-0.3,0.1-0.4,0.1
			c-0.3,0-0.5,0-0.8,0s-0.5-0.1-0.8-0.1s-0.5,0-0.7,0s-0.3,0-0.4,0.1s-0.2,0.2-0.2,0.4s-0.1,0.4-0.1,0.7v0.1v0.1c0,0.3,0,0.5,0,0.6
			s0,0.3,0.1,0.3c0.1,0.1,0.2,0.1,0.3,0.1c0.1,0,0.3,0,0.6,0c0.2,0,0.4,0,0.6,0s0.4,0,0.6,0c0.1,0,0.2,0.1,0.3,0.2
			c0.1,0.1,0,0.3-0.1,0.4c-0.2,0.2-0.4,0.3-0.7,0.3c-0.2,0-0.5,0.1-0.8,0.1c-0.2,0-0.3,0-0.5,0c-0.1,0-0.2,0-0.2,0.1
			c-0.1,0-0.1,0.1-0.1,0.3c0,0.1,0,0.3,0,0.5s0,0.4,0,0.6c0,0.2,0,0.4,0,0.6c0,0.2,0.1,0.4,0.1,0.5c0.1,0.1,0.1,0.2,0.2,0.3
			s0.2,0.1,0.4,0.1c0.2,0,0.3,0,0.5,0c0.1,0,0.2,0,0.3,0s0.2,0,0.3,0c0.1,0,0.2,0,0.3,0c0.1,0,0.2,0,0.3,0c0.1,0,0.1,0,0.2,0
			s0.1,0,0.2,0s0.1,0.1,0.1,0.1s0.1,0.1,0.1,0.2c0,0.2,0,0.3-0.1,0.3s-0.2,0.1-0.4,0.1c-0.3,0-0.5,0.1-0.8,0.1s-0.5,0.1-0.8,0.1
			c-0.6,0-1,0-1.3-0.3c-0.3-0.2-0.5-0.6-0.6-1.2c-0.1-0.5-0.2-1.1-0.3-1.6C70.5,46.9,70.5,46.3,70.5,45.7z"/>
		<path d="M80.1,45.8c0-0.2,0-0.4,0-0.6c0-0.2-0.1-0.5-0.1-0.7s-0.1-0.5-0.2-0.7s-0.1-0.5-0.2-0.7c0-0.1,0-0.1-0.1-0.2s0-0.1,0-0.2
			s0-0.1,0.1-0.2s0.1-0.1,0.2-0.1c0.2-0.1,0.3,0,0.5,0c0.1,0.1,0.2,0.2,0.3,0.4c0.3,0.9,0.5,1.7,0.6,2.6c0.1,0.9,0,1.8-0.2,2.6
			c-0.1,0.3-0.2,0.6-0.3,0.9c-0.2,0.3-0.3,0.6-0.6,0.8c-0.2,0.2-0.5,0.4-0.8,0.6s-0.6,0.2-1,0.2c-0.2,0-0.5,0-0.7-0.1
			s-0.4-0.1-0.6-0.2c-0.2-0.1-0.4-0.2-0.5-0.3c-0.2-0.1-0.3-0.3-0.5-0.4c-0.1-0.1-0.2-0.2-0.1-0.4c0-0.2,0.1-0.3,0.2-0.4
			c0.1-0.1,0.1-0.1,0.2-0.1s0.1,0,0.2,0s0.1,0.1,0.2,0.1s0.1,0.1,0.2,0.1l0,0l0,0c1.2,1.2,2.2,1,3-0.6c0.1-0.2,0.2-0.3,0.2-0.5
			s0.1-0.3,0.1-0.5s0-0.4,0-0.6C80.1,46.4,80.1,46.1,80.1,45.8z"/>
		<path d="M83.6,46.1c0,0.6-0.1,1.2-0.1,1.7c0,0.6-0.1,1.1-0.1,1.7c0,0.2-0.1,0.4-0.2,0.6c-0.1,0.1-0.3,0.2-0.6,0.2
			c-0.2,0-0.3,0-0.3-0.1c-0.1-0.1-0.1-0.1-0.1-0.2c0-0.1,0-0.2,0-0.3s0-0.2,0.1-0.3c0.1-0.4,0.2-0.8,0.2-1.2s0-0.8,0-1.2
			s0-0.8,0-1.2s0-0.8,0.1-1.2c0-0.1,0-0.2,0-0.2c0-0.1,0-0.2,0-0.2c0-0.1,0-0.2,0.1-0.3s0-0.2,0.1-0.3s0.1-0.2,0.2-0.2
			c0.1-0.1,0.2-0.1,0.4,0c0.2,0,0.3,0.1,0.4,0.1c0.1,0.1,0.1,0.2,0.1,0.3s0,0.2,0,0.3s0,0.2,0,0.3c0,0.2,0,0.4,0,0.6
			c0,0.2,0,0.4,0,0.6c0,0.2,0,0.4,0,0.5C83.5,46,83.5,46.1,83.6,46.1z"/>
	</g>
</g>
</svg>
