<?xml version="1.0" encoding="utf-8"?>
<!-- Generator: Adobe Illustrator 23.1.0, SVG Export Plug-In . SVG Version: 6.00 Build 0)  -->
<svg version="1.1" id="Layer_1" xmlns="http://www.w3.org/2000/svg" xmlns:xlink="http://www.w3.org/1999/xlink" x="0px" y="0px"
	 viewBox="0 0 81.4 81" style="enable-background:new 0 0 81.4 81;" xml:space="preserve">
<style type="text/css">
	.st0{fill:#FEC24A;}
	.st1{fill:#231815;}
</style>
<g>
	<g>
		
			<rect x="9.2" y="9.2" transform="matrix(0.9333 -0.3592 0.3592 0.9333 -11.8501 17.2583)" class="st0" width="62.7" height="62.7"/>
	</g>
	<g>
		<rect x="6.4" y="6.4" class="st1" width="63.2" height="1"/>
	</g>
	<g>
		<rect x="74.3" y="3.9" class="st1" width="1" height="63.2"/>
	</g>
	<g>
		<rect x="18.2" y="70.5" class="st1" width="63.2" height="1"/>
	</g>
	<g>
		<rect x="9.9" y="12.5" class="st1" width="1" height="63.2"/>
	</g>
	<g>
		<path d="M12.2,39.8c0.1-0.3,0.1-0.6,0.2-0.9c0-0.3,0-0.6,0-1s0-0.7,0-1s0-0.7,0-1c0-0.1,0-0.2,0-0.3s0-0.2,0.1-0.2
			c0.1-0.2,0.3-0.3,0.5-0.5c0.3-0.2,0.5-0.3,0.8-0.4c0.3-0.1,0.6-0.2,0.9-0.3s0.5-0.1,0.7,0c0.3,0.1,0.6,0.2,0.9,0.3
			c0.3,0.2,0.5,0.4,0.7,0.6c0.2,0.2,0.4,0.5,0.5,0.8s0.2,0.6,0.3,0.9c0.1,0.5,0,1-0.3,1.5c-0.2,0.5-0.6,0.9-1.1,1.1
			c-0.4,0.2-0.7,0.4-1.1,0.5c-0.4,0.2-0.8,0.3-1.2,0.3c-0.3,0-0.5,0.1-0.6,0.2c-0.1,0.1-0.1,0.3-0.1,0.6s0.1,0.5,0.1,0.8
			s0.1,0.5,0.1,0.8c0,0.2,0,0.3-0.1,0.5c-0.1,0.1-0.2,0.2-0.4,0.3c-0.1,0-0.2,0-0.3,0c-0.1,0-0.1-0.1-0.2-0.1c0-0.1-0.1-0.1-0.1-0.2
			c0-0.1,0-0.2-0.1-0.2c-0.1-0.1-0.1-0.3-0.1-0.4c0-0.4-0.1-0.8-0.1-1.2C12.3,40.7,12.3,40.3,12.2,39.8z M13.6,38.2
			c0,0.3,0,0.5,0,0.7s0.1,0.3,0.1,0.3c0.1,0,0.2,0.1,0.3,0c0.2,0,0.4-0.1,0.7-0.1c0.2-0.1,0.4-0.1,0.6-0.2c0.2-0.1,0.3-0.2,0.5-0.3
			c1.1-0.4,1.5-1.2,1.1-2.2c-0.1-0.5-0.4-0.8-0.8-1c-0.4-0.2-0.8-0.3-1.3-0.2c-0.3,0.1-0.6,0.2-0.8,0.3s-0.3,0.2-0.5,0.4
			c-0.1,0.2-0.2,0.3-0.2,0.6c0,0.2,0,0.5,0,0.8c0,0.2,0,0.3,0,0.5C13.5,37.9,13.5,38.1,13.6,38.2z"/>
		<path d="M18.4,42.5c0-0.3,0-0.6,0.1-0.9c0.1-0.3,0.1-0.6,0.2-0.9c0.1-0.3,0.2-0.6,0.3-0.9c0.1-0.3,0.2-0.6,0.3-0.9
			c0.1-0.3,0.2-0.7,0.2-1c0.1-0.3,0.1-0.7,0.2-1s0.1-0.7,0.2-1s0.2-0.7,0.3-1c0.1-0.1,0.1-0.2,0.1-0.4s0.1-0.3,0.1-0.4
			s0.1-0.2,0.2-0.3s0.2-0.1,0.3-0.2c0.1,0,0.3,0,0.4,0s0.2,0.1,0.3,0.2c0.1,0.1,0.2,0.2,0.3,0.3s0.2,0.2,0.3,0.3
			c0.4,0.6,0.8,1.2,1.1,1.8s0.6,1.3,0.9,2c0.1,0.2,0.2,0.4,0.3,0.7s0.3,0.5,0.4,0.8s0.3,0.6,0.4,0.9c0.1,0.3,0.2,0.5,0.2,0.7
			c0,0.1,0,0.2,0.1,0.3c0,0.1,0.1,0.2,0.1,0.3s0,0.2,0,0.2c0,0.1-0.1,0.1-0.2,0.2c-0.1,0-0.2,0-0.3,0s-0.2-0.1-0.3-0.2
			s-0.1-0.2-0.2-0.2c0-0.1-0.1-0.2-0.1-0.3c0-0.3-0.1-0.5-0.2-0.8c-0.1-0.2-0.2-0.4-0.3-0.6c-0.2-0.2-0.3-0.3-0.5-0.3
			c-0.2-0.1-0.5-0.1-0.8,0C22.4,40,22,40,21.6,40s-0.8,0-1.2,0c-0.2,0-0.4,0-0.5,0.1s-0.2,0.2-0.2,0.4c-0.1,0.3-0.2,0.6-0.2,0.9
			s-0.2,0.6-0.3,0.9c0,0.1-0.1,0.2-0.1,0.3c-0.1,0.1-0.2,0.2-0.3,0.1c-0.1,0-0.1,0-0.2-0.1S18.5,42.5,18.4,42.5
			c0.1-0.1,0.1-0.1,0.1-0.2C18.4,42.6,18.4,42.6,18.4,42.5z M21.5,39.6c0.2,0,0.4-0.1,0.7-0.1s0.5-0.1,0.8-0.1
			c0.4,0,0.5-0.2,0.3-0.6c-0.3-0.5-0.6-1-0.8-1.5s-0.5-1-0.8-1.5c0,0-0.1-0.1-0.1-0.2c0-0.1-0.1-0.1-0.1-0.1l-0.1-0.1
			c0,0-0.1,0-0.2,0S21,35.5,21,35.6c0,0.1-0.1,0.2-0.1,0.3c-0.1,0.5-0.2,0.9-0.3,1.3c-0.1,0.5-0.2,0.9-0.3,1.3
			c-0.1,0.4-0.1,0.7,0,0.8c0.1,0.2,0.4,0.2,0.7,0.2c0.1,0,0.1,0,0.2,0C21.3,39.6,21.4,39.6,21.5,39.6z"/>
		<path d="M28.1,39.7c0.1,0.3,0.1,0.6,0.2,0.9c0.1,0.3,0.1,0.6,0.2,0.9c0,0.1,0,0.2,0,0.3s0,0.2-0.1,0.3c0,0.1-0.1,0.2-0.2,0.2
			c-0.1,0.1-0.2,0.1-0.4,0.1s-0.3,0-0.3,0c-0.1,0-0.1-0.1-0.1-0.2c0-0.1,0-0.2,0-0.2c0-0.1,0-0.2,0-0.2c-0.1-0.5-0.2-1-0.3-1.6
			c-0.1-0.5-0.2-1-0.3-1.6c-0.1-0.5-0.2-1-0.3-1.6c-0.1-0.5-0.2-1-0.3-1.6c0-0.1,0-0.2,0-0.3s0-0.2,0.1-0.3c0-0.1,0.1-0.1,0.2-0.1
			s0.2,0.1,0.4,0.2C27,35,27,35,27.1,35s0.1,0,0.2,0l0.1-0.1l0.1-0.1c1.3-1,2.7-1.3,4.3-0.9c0.2,0,0.4,0.1,0.6,0.3
			c0.2,0.1,0.4,0.3,0.5,0.5c0.2,0.2,0.3,0.4,0.4,0.6c0.1,0.2,0.1,0.4,0.2,0.6c0,0.2,0,0.3-0.1,0.4c-0.1,0.1-0.2,0.2-0.3,0.3
			c-0.3,0.3-0.5,0.5-0.9,0.6c-0.3,0.2-0.6,0.3-0.9,0.5c-0.2,0.1-0.3,0.2-0.4,0.2c-0.1,0.1-0.2,0.2-0.2,0.3s0,0.2,0,0.3
			c0.1,0.1,0.2,0.2,0.3,0.4c0.4,0.4,0.7,0.8,1.1,1.2c0.3,0.4,0.7,0.8,1,1.2c0.2,0.2,0.3,0.4,0.3,0.5c0,0.2-0.1,0.3-0.3,0.5
			c-0.1,0.1-0.2,0.1-0.3,0.2c-0.1,0-0.2,0-0.2,0c-0.1,0-0.1-0.1-0.2-0.2c-0.1-0.1-0.1-0.2-0.2-0.2c-0.4-0.5-0.8-1-1.2-1.4
			c-0.4-0.5-0.8-1-1.2-1.5c-0.2-0.2-0.3-0.3-0.5-0.3s-0.4,0-0.6,0.1c-0.1,0-0.2,0.1-0.3,0.1s-0.1,0.1-0.2,0.2
			c-0.1,0.1-0.1,0.1-0.1,0.2C28.1,39.5,28.1,39.6,28.1,39.7z M27.5,36.4c0.1,0.4,0.1,0.8,0.2,1s0.2,0.4,0.3,0.5s0.3,0.1,0.5,0
			c0.2,0,0.5-0.1,0.8-0.3c0.5-0.2,0.9-0.3,1.3-0.6c0.4-0.2,0.9-0.4,1.3-0.6c0.1,0,0.1-0.1,0.2-0.1s0.1-0.1,0.2-0.1s0.1-0.1,0.1-0.2
			c0-0.1,0-0.2,0-0.3c-0.1-0.3-0.3-0.5-0.6-0.7c-0.3-0.1-0.6-0.2-1-0.2s-0.8,0-1.2,0.1s-0.8,0.2-1.1,0.3c-0.4,0.1-0.6,0.3-0.8,0.5
			c-0.1,0.1-0.2,0.2-0.2,0.3S27.5,36.2,27.5,36.4z"/>
		<path d="M44.3,39c0-0.3,0.1-0.5,0.1-0.8s0-0.5,0-0.8s0-0.5,0.1-0.8c0-0.3,0.1-0.5,0.1-0.8c0-0.1,0.1-0.3,0.1-0.4s0.1-0.3,0.1-0.4
			c0.1-0.1,0.2-0.3,0.3-0.4c0.1-0.1,0.3-0.1,0.4-0.1c0.2,0,0.3,0.2,0.3,0.3c0,0.2,0,0.3,0,0.4c0,0.3-0.1,0.5-0.1,0.8
			s-0.1,0.5-0.1,0.8c-0.1,0.2,0,0.4,0,0.6c0.1,0.1,0.3,0.2,0.6,0.2c0.5,0,1,0,1.4,0c0.5,0,1,0,1.5,0c0.3,0,0.4-0.1,0.6-0.2
			s0.2-0.3,0.2-0.5c0-0.3,0.1-0.5,0.1-0.8c0.1-0.3,0.1-0.5,0.2-0.8c0-0.1,0-0.2,0.1-0.3s0.1-0.2,0.1-0.2c0.1-0.1,0.1-0.1,0.2-0.2
			c0.1,0,0.2,0,0.3,0s0.2,0.1,0.3,0.1c0.1,0.1,0.1,0.1,0.1,0.2s0,0.2,0,0.3s0,0.2,0,0.3c-0.1,0.7-0.2,1.3-0.3,2s-0.2,1.3-0.3,2
			c0,0.2-0.1,0.5-0.1,0.7s0,0.5,0.1,0.7s0.1,0.3,0,0.4c-0.1,0.1-0.2,0.2-0.3,0.3c-0.1,0-0.1,0.1-0.2,0.1s-0.1,0.1-0.2,0.1
			s-0.1,0-0.2,0s-0.1,0-0.2,0s-0.1-0.1-0.2-0.1s-0.1-0.1-0.1-0.2c0-0.1,0-0.1,0-0.2c0-0.1,0-0.2,0-0.2c0-0.3,0.1-0.6,0.1-1
			c0-0.3,0.1-0.6,0.1-1c0-0.1,0-0.2,0-0.3s0-0.2-0.1-0.2s-0.1-0.1-0.1-0.2c-0.1,0-0.2,0-0.3,0c-0.2,0-0.4,0-0.6,0s-0.4,0-0.7,0
			s-0.4,0-0.7,0c-0.2,0-0.4,0-0.7,0.1s-0.4,0.2-0.5,0.3s-0.2,0.3-0.2,0.5c0,0.3,0,0.5-0.1,0.8c0,0.3-0.1,0.5-0.1,0.8
			c0,0.2,0,0.3-0.1,0.4c-0.1,0.1-0.1,0.2-0.2,0.2s-0.2,0.1-0.3,0.1s-0.2,0-0.3,0s-0.2,0-0.2-0.1c0,0-0.1-0.1-0.1-0.2
			c0-0.1,0-0.2,0-0.3s0-0.2,0-0.3c0-0.3,0-0.7,0-1C44.3,39.7,44.3,39.3,44.3,39z"/>
		<path d="M55.3,42.8c0.1-0.6,0-1.1-0.1-1.7c-0.1-0.5-0.3-1-0.6-1.4s-0.6-0.8-0.9-1.2c-0.4-0.4-0.8-0.8-1.2-1.1
			c-0.1-0.1-0.2-0.2-0.3-0.2c-0.1-0.1-0.2-0.2-0.3-0.3s-0.1-0.2-0.2-0.3c0-0.1,0-0.2,0.1-0.3s0.2-0.2,0.3-0.2s0.2,0,0.3,0.1
			s0.2,0.2,0.3,0.3s0.2,0.2,0.3,0.3c0.3,0.2,0.5,0.5,0.8,0.7s0.5,0.5,0.7,0.8c0.2,0.2,0.3,0.3,0.4,0.4s0.3,0.1,0.4,0.1
			s0.3-0.1,0.4-0.2s0.3-0.2,0.4-0.4c0.4-0.4,0.8-0.7,1.2-1.1c0.4-0.3,0.8-0.7,1.2-1c0.1-0.1,0.2-0.1,0.3-0.2
			c0.1-0.1,0.2-0.2,0.3-0.2s0.2-0.1,0.3-0.1c0.1,0,0.2,0.1,0.3,0.2c0.1,0.1,0.2,0.3,0.2,0.4c0,0.1-0.1,0.2-0.2,0.3s-0.2,0.1-0.3,0.2
			c-0.1,0.1-0.2,0.1-0.3,0.2c-0.3,0.3-0.7,0.6-1,1c-0.3,0.3-0.7,0.6-1.1,0.8c-0.3,0.2-0.5,0.4-0.7,0.6C56.1,39.5,56,39.8,56,40
			c-0.1,0.2-0.1,0.5-0.1,0.8s0,0.5,0.1,0.8c0,0.3,0,0.5,0.1,0.8s0.1,0.5,0.1,0.8c0.1,0.2,0.1,0.4,0,0.6C56.1,44,56,44,55.7,44.1
			c-0.1,0-0.2,0-0.3-0.1c-0.1,0-0.1-0.1-0.2-0.2s0-0.1,0-0.3c0-0.1,0-0.2,0-0.3s0-0.1,0-0.2C55.3,42.9,55.3,42.8,55.3,42.8z"/>
		<path d="M60.4,37.8c0-0.5,0-1,0-1.5c0.1-0.5,0.1-1,0.1-1.5c0-0.4,0.2-0.6,0.7-0.6s1.1,0,1.6,0s1.1,0.1,1.6,0.2h0.1h0.1
			c0.1,0,0.1,0.1,0.2,0.1s0.1,0.1,0.2,0.1s0.1,0.1,0.1,0.1c0,0.1,0,0.1,0,0.2c0,0.2-0.1,0.3-0.2,0.3s-0.3,0.1-0.4,0.1
			c-0.3,0-0.5,0-0.8,0s-0.5-0.1-0.8-0.1s-0.5,0-0.7,0s-0.3,0-0.4,0.1s-0.2,0.2-0.2,0.4s-0.1,0.4-0.1,0.7v0.1v0.1c0,0.3,0,0.5,0,0.6
			s0,0.3,0.1,0.3c0.1,0.1,0.2,0.1,0.3,0.1c0.1,0,0.3,0,0.6,0c0.2,0,0.4,0,0.6,0s0.4,0,0.6,0c0.1,0,0.2,0.1,0.3,0.2
			c0.1,0.1,0,0.3-0.1,0.4c-0.2,0.2-0.4,0.3-0.7,0.3c-0.2,0-0.5,0.1-0.8,0.1c-0.2,0-0.3,0-0.5,0c-0.1,0-0.2,0-0.2,0.1
			c-0.1,0-0.1,0.1-0.1,0.3c0,0.1,0,0.3,0,0.5s0,0.4,0,0.6c0,0.2,0,0.4,0,0.6c0,0.2,0.1,0.4,0.1,0.5c0.1,0.1,0.1,0.2,0.2,0.3
			s0.2,0.1,0.4,0.1c0.2,0,0.3,0,0.5,0c0.1,0,0.2,0,0.3,0s0.2,0,0.3,0c0.1,0,0.2,0,0.3,0c0.1,0,0.2,0,0.3,0c0.1,0,0.1,0,0.2,0
			s0.1,0,0.2,0s0.1,0.1,0.1,0.1s0.1,0.1,0.1,0.2c0,0.2,0,0.3-0.1,0.3s-0.2,0.1-0.4,0.1c-0.3,0-0.5,0.1-0.8,0.1s-0.5,0.1-0.8,0.1
			c-0.6,0-1,0-1.3-0.3c-0.3-0.2-0.5-0.6-0.6-1.2c-0.1-0.5-0.2-1.1-0.3-1.6C60.4,39,60.4,38.4,60.4,37.8z"/>
		<path d="M70,37.9c0-0.2,0-0.4,0-0.6c0-0.2-0.1-0.5-0.1-0.7s-0.1-0.5-0.2-0.7s-0.1-0.5-0.2-0.7c0-0.1,0-0.1-0.1-0.2s0-0.1,0-0.2
			s0-0.1,0.1-0.2s0.1-0.1,0.2-0.1c0.2-0.1,0.3,0,0.5,0c0.1,0.1,0.2,0.2,0.3,0.4c0.3,0.9,0.5,1.7,0.6,2.6c0.1,0.9,0,1.8-0.2,2.6
			c-0.1,0.3-0.2,0.6-0.3,0.9c-0.2,0.3-0.3,0.6-0.6,0.8c-0.2,0.2-0.5,0.4-0.8,0.6s-0.6,0.2-1,0.2c-0.2,0-0.5,0-0.7-0.1
			s-0.4-0.1-0.6-0.2c-0.2-0.1-0.4-0.2-0.5-0.3c-0.2-0.1-0.3-0.3-0.5-0.4c-0.1-0.1-0.2-0.2-0.1-0.4c0-0.2,0.1-0.3,0.2-0.4
			c0.1-0.1,0.1-0.1,0.2-0.1s0.1,0,0.2,0s0.1,0.1,0.2,0.1s0.1,0.1,0.2,0.1l0,0l0,0c1.2,1.2,2.2,1,3-0.6c0.1-0.2,0.2-0.3,0.2-0.5
			s0.1-0.3,0.1-0.5s0-0.4,0-0.6C70,38.5,70,38.2,70,37.9z"/>
		<path d="M73.5,38.2c0,0.6-0.1,1.2-0.1,1.7c0,0.6-0.1,1.1-0.1,1.7c0,0.2-0.1,0.4-0.2,0.6c-0.1,0.1-0.3,0.2-0.6,0.2
			c-0.2,0-0.3,0-0.3-0.1c-0.1-0.1-0.1-0.1-0.1-0.2c0-0.1,0-0.2,0-0.3s0-0.2,0.1-0.3c0.1-0.4,0.2-0.8,0.2-1.2s0-0.8,0-1.2
			s0-0.8,0-1.2s0-0.8,0.1-1.2c0-0.1,0-0.2,0-0.2c0-0.1,0-0.2,0-0.2c0-0.1,0-0.2,0.1-0.3s0-0.2,0.1-0.3s0.1-0.2,0.2-0.2
			c0.1-0.1,0.2-0.1,0.4,0c0.2,0,0.3,0.1,0.4,0.1c0.1,0.1,0.1,0.2,0.1,0.3s0,0.2,0,0.3s0,0.2,0,0.3c0,0.2,0,0.4,0,0.6
			c0,0.2,0,0.4,0,0.6c0,0.2,0,0.4,0,0.5C73.4,38.1,73.4,38.2,73.5,38.2z"/>
	</g>
</g>
</svg>
