<?xml version="1.0" encoding="utf-8"?>
<!-- Generator: Adobe Illustrator 23.1.0, SVG Export Plug-In . SVG Version: 6.00 Build 0)  -->
<svg version="1.1" id="Layer_1" xmlns="http://www.w3.org/2000/svg" xmlns:xlink="http://www.w3.org/1999/xlink" x="0px" y="0px"
	 viewBox="0 0 192 192" style="enable-background:new 0 0 192 192;" xml:space="preserve">
<style type="text/css">
	.st0{fill:#FEC24A;}
	.st1{fill:#231815;}
</style>
<g>
	<g>
		<polygon class="st0" points="0.9,54.5 137.6,1.7 190.2,138.9 53.5,191.7 		"/>
	</g>
	<g>
		<rect x="15.8" y="16.4" class="st1" width="147.6" height="2.3"/>
	</g>
	<g>
		<rect x="174.3" y="10.7" class="st1" width="2.3" height="148.2"/>
	</g>
	<g>
		<rect x="43.3" y="166.9" class="st1" width="147.6" height="2.3"/>
	</g>
	<g>
		<rect x="23.8" y="30.7" class="st1" width="2.3" height="148.2"/>
	</g>
	<g>
		<path d="M29.4,94.9c0.2-0.7,0.3-1.4,0.4-2.2c0-0.8,0.1-1.5,0.1-2.3c0-0.8,0-1.5,0-2.3c0-0.8,0-1.6,0.1-2.3c0-0.2,0.1-0.4,0.1-0.6
			c0-0.2,0.1-0.4,0.2-0.5c0.2-0.4,0.6-0.8,1.2-1.1c0.6-0.4,1.2-0.8,1.9-1c0.7-0.3,1.4-0.5,2.1-0.7c0.7-0.1,1.2-0.2,1.6-0.1
			c0.7,0.2,1.4,0.4,2,0.8c0.6,0.4,1.2,0.8,1.6,1.4c0.5,0.5,0.9,1.1,1.2,1.8c0.3,0.7,0.5,1.4,0.7,2.2c0.2,1.2,0,2.4-0.6,3.5
			c-0.6,1.1-1.5,2-2.7,2.6c-0.9,0.4-1.7,0.9-2.6,1.2c-0.9,0.4-1.8,0.6-2.8,0.7c-0.6,0-1.1,0.2-1.3,0.5c-0.2,0.3-0.3,0.7-0.3,1.3
			c0,0.6,0.1,1.2,0.2,1.8s0.1,1.2,0.2,1.8c0,0.4,0,0.8-0.2,1.1s-0.4,0.5-0.9,0.7c-0.3,0.1-0.5,0.1-0.7,0c-0.2-0.1-0.3-0.2-0.4-0.3
			c-0.1-0.1-0.2-0.3-0.2-0.5c-0.1-0.2-0.1-0.4-0.2-0.5c-0.1-0.3-0.2-0.6-0.3-1c-0.1-1-0.2-1.9-0.3-2.9C29.5,97,29.5,96,29.4,94.9z
			 M32.4,91.2c0,0.7,0,1.2,0,1.6c0,0.4,0.1,0.6,0.3,0.7c0.2,0.1,0.4,0.2,0.8,0.1c0.4,0,0.9-0.2,1.6-0.3c0.5-0.1,0.9-0.3,1.3-0.6
			c0.4-0.3,0.8-0.5,1.2-0.7c2.5-1,3.4-2.7,2.6-5.2c-0.3-1.1-0.9-1.9-1.8-2.4c-0.9-0.5-1.9-0.7-2.9-0.4c-0.7,0.2-1.3,0.4-1.8,0.6
			c-0.5,0.2-0.8,0.5-1.1,0.9c-0.3,0.4-0.4,0.8-0.4,1.4c0,0.5,0,1.2,0.1,2c0,0.4,0.1,0.8,0.1,1.1C32.4,90.4,32.4,90.8,32.4,91.2z"/>
		<path d="M43.9,101.1c0-0.7,0.1-1.5,0.2-2.1c0.1-0.7,0.3-1.4,0.5-2.1c0.2-0.7,0.4-1.4,0.6-2.1s0.4-1.4,0.6-2.1
			c0.2-0.8,0.4-1.5,0.5-2.3c0.2-0.8,0.3-1.6,0.4-2.4c0.1-0.8,0.3-1.6,0.5-2.3c0.2-0.8,0.4-1.5,0.7-2.3c0.1-0.3,0.2-0.5,0.3-0.8
			s0.2-0.6,0.3-0.8c0.1-0.3,0.3-0.5,0.4-0.7c0.2-0.2,0.4-0.3,0.7-0.4c0.3,0,0.7,0,0.9,0.1c0.3,0.1,0.6,0.3,0.8,0.5
			c0.3,0.2,0.5,0.4,0.7,0.7c0.2,0.3,0.4,0.5,0.6,0.8c1,1.4,1.8,2.9,2.6,4.3c0.8,1.5,1.5,3.1,2,4.7c0.1,0.4,0.4,1,0.7,1.6
			c0.3,0.6,0.6,1.3,0.9,2c0.3,0.7,0.6,1.3,0.9,2c0.3,0.7,0.4,1.2,0.5,1.7c0,0.2,0.1,0.4,0.1,0.6c0.1,0.2,0.1,0.4,0.2,0.6
			c0,0.2,0,0.4,0,0.5c-0.1,0.2-0.2,0.3-0.5,0.4c-0.3,0.1-0.5,0.1-0.7,0c-0.2-0.1-0.4-0.2-0.6-0.4c-0.2-0.2-0.3-0.4-0.4-0.6
			s-0.2-0.4-0.2-0.6c-0.1-0.6-0.2-1.2-0.4-1.8c-0.2-0.5-0.4-1-0.8-1.4s-0.8-0.6-1.3-0.8c-0.5-0.1-1.1-0.1-1.8,0
			c-0.9,0.2-1.9,0.3-2.8,0.3c-0.9,0-1.8,0-2.8,0c-0.5,0-0.8,0-1.1,0.2c-0.2,0.2-0.4,0.5-0.5,0.9c-0.2,0.7-0.4,1.4-0.5,2.1
			c-0.2,0.7-0.4,1.4-0.6,2.1c-0.1,0.3-0.2,0.5-0.3,0.8c-0.1,0.3-0.4,0.4-0.7,0.3c-0.2,0-0.4-0.1-0.5-0.2c-0.1-0.1-0.2-0.2-0.2-0.4
			c0-0.1-0.1-0.3-0.1-0.4C43.9,101.5,43.9,101.3,43.9,101.1z M51.1,94.4c0.5-0.1,1-0.2,1.6-0.3c0.6-0.1,1.2-0.2,1.9-0.3
			c0.9-0.1,1.2-0.6,0.7-1.4c-0.7-1.1-1.3-2.3-1.8-3.5s-1.2-2.4-2-3.4c-0.1-0.1-0.1-0.2-0.2-0.4c-0.1-0.1-0.2-0.2-0.2-0.3
			c-0.1-0.1-0.2-0.2-0.3-0.2c-0.1,0-0.3-0.1-0.4,0c-0.3,0-0.5,0.2-0.5,0.4c-0.1,0.3-0.1,0.5-0.2,0.8c-0.3,1.1-0.5,2.1-0.7,3.1
			c-0.2,1.1-0.4,2.1-0.8,3.1c-0.3,0.9-0.3,1.5,0,1.9c0.3,0.4,0.8,0.5,1.7,0.5c0.1,0,0.3,0,0.5,0C50.5,94.4,50.8,94.4,51.1,94.4z"/>
		<path d="M66.4,94.7c0.1,0.7,0.3,1.4,0.4,2.1c0.1,0.7,0.3,1.4,0.4,2.1c0,0.2,0,0.5,0,0.7c0,0.2,0,0.4-0.1,0.6
			c-0.1,0.2-0.2,0.4-0.4,0.5c-0.2,0.1-0.5,0.2-0.8,0.3c-0.4,0-0.7,0-0.8,0c-0.2-0.1-0.3-0.2-0.3-0.4c0-0.2-0.1-0.4-0.1-0.5
			c0-0.2,0-0.4,0-0.6c-0.2-1.2-0.5-2.5-0.7-3.7c-0.2-1.2-0.4-2.5-0.6-3.7c-0.2-1.2-0.4-2.5-0.7-3.7c-0.2-1.2-0.5-2.4-0.8-3.7
			c0-0.2-0.1-0.4-0.1-0.7c0-0.2,0-0.4,0.1-0.6c0.1-0.1,0.2-0.2,0.4-0.2s0.5,0.1,0.9,0.4c0.2,0.1,0.4,0.2,0.5,0.2s0.3,0,0.4-0.1
			c0.1-0.1,0.2-0.2,0.3-0.3c0.1-0.1,0.2-0.2,0.3-0.3c3-2.3,6.4-3,10.1-2.1c0.5,0.1,1,0.3,1.4,0.7s0.9,0.7,1.2,1.2
			c0.4,0.4,0.7,0.9,0.9,1.5c0.2,0.5,0.4,1,0.4,1.5c0,0.4,0,0.7-0.2,0.9c-0.2,0.2-0.4,0.5-0.6,0.7c-0.6,0.6-1.3,1.1-2,1.5
			s-1.5,0.7-2.2,1.1c-0.4,0.2-0.7,0.4-0.9,0.5c-0.3,0.2-0.4,0.4-0.5,0.6s0,0.4,0.1,0.7c0.1,0.3,0.4,0.6,0.7,0.9
			c0.9,0.9,1.7,1.8,2.5,2.7s1.6,1.9,2.4,2.8c0.4,0.4,0.7,0.9,0.7,1.2c0,0.4-0.3,0.8-0.7,1.1c-0.3,0.2-0.5,0.3-0.7,0.4
			c-0.2,0-0.4,0-0.5-0.1c-0.2-0.1-0.3-0.2-0.5-0.4c-0.2-0.2-0.3-0.4-0.4-0.5c-1-1.1-1.9-2.3-2.9-3.4c-1-1.1-1.9-2.2-2.8-3.4
			c-0.4-0.5-0.8-0.7-1.2-0.8c-0.4,0-0.9,0.1-1.3,0.2c-0.2,0.1-0.4,0.2-0.6,0.3c-0.2,0.1-0.3,0.2-0.5,0.4c-0.1,0.1-0.2,0.3-0.3,0.5
			C66.4,94.2,66.4,94.4,66.4,94.7z M65.1,86.8c0.2,1,0.3,1.8,0.5,2.3c0.1,0.5,0.4,0.9,0.6,1.1c0.3,0.2,0.6,0.2,1.1,0.1
			c0.5-0.1,1.1-0.3,1.9-0.6c1.1-0.4,2.1-0.8,3.1-1.3c1-0.5,2-1,3-1.5c0.1-0.1,0.3-0.2,0.5-0.2c0.2-0.1,0.3-0.2,0.5-0.3
			c0.1-0.1,0.3-0.3,0.3-0.4c0.1-0.2,0.1-0.4,0-0.6c-0.1-0.7-0.6-1.3-1.4-1.6c-0.6-0.3-1.4-0.4-2.3-0.5c-0.9,0-1.8,0-2.8,0.2
			c-0.9,0.2-1.8,0.4-2.7,0.8c-0.8,0.3-1.5,0.8-1.9,1.2c-0.2,0.2-0.4,0.4-0.4,0.7C65.1,86.2,65,86.5,65.1,86.8z"/>
		<path d="M104.2,92.9c0.1-0.6,0.1-1.2,0.1-1.8s0-1.2,0.1-1.9c0-0.6,0.1-1.3,0.2-1.9c0.1-0.6,0.2-1.2,0.3-1.9
			c0.1-0.3,0.1-0.6,0.2-0.9c0-0.3,0.1-0.6,0.3-0.9c0.1-0.3,0.4-0.6,0.6-0.8c0.3-0.2,0.6-0.3,1-0.2c0.4,0.1,0.7,0.4,0.7,0.7
			c0,0.4,0,0.7,0,1c-0.1,0.6-0.2,1.2-0.3,1.8c-0.1,0.6-0.2,1.2-0.3,1.8c-0.1,0.6-0.1,1,0.1,1.3c0.2,0.3,0.6,0.5,1.3,0.5
			c1.1,0,2.3,0,3.4,0.1c1.1,0,2.2,0,3.4,0c0.6,0,1.1-0.2,1.3-0.5c0.3-0.3,0.4-0.7,0.5-1.2c0.1-0.6,0.2-1.2,0.3-1.8
			c0.1-0.6,0.3-1.2,0.4-1.8c0-0.2,0.1-0.4,0.1-0.6c0-0.2,0.1-0.4,0.3-0.5c0.1-0.1,0.3-0.3,0.4-0.4c0.2-0.1,0.4-0.1,0.7,0
			c0.3,0,0.5,0.2,0.6,0.3c0.1,0.1,0.2,0.3,0.3,0.5c0,0.2,0,0.4,0,0.6c0,0.2,0,0.4-0.1,0.6c-0.2,1.6-0.5,3.1-0.7,4.7
			c-0.2,1.5-0.5,3.1-0.7,4.7c-0.1,0.5-0.2,1.1-0.2,1.6c0,0.5,0,1.1,0.2,1.7c0.1,0.4,0.1,0.7,0,1c-0.1,0.3-0.4,0.5-0.7,0.7
			c-0.1,0.1-0.3,0.2-0.5,0.3c-0.2,0.1-0.3,0.2-0.5,0.3c-0.1,0.1-0.3,0.1-0.5,0.1c-0.2,0-0.3,0-0.5-0.1c-0.1-0.1-0.3-0.2-0.4-0.3
			s-0.1-0.3-0.2-0.5c0-0.2,0-0.4,0-0.5c0-0.2,0-0.4,0-0.5c0.1-0.8,0.2-1.5,0.3-2.2c0.1-0.8,0.2-1.5,0.2-2.3c0-0.2,0-0.4,0-0.6
			c0-0.2,0-0.4-0.1-0.5c-0.1-0.2-0.2-0.3-0.3-0.4c-0.2-0.1-0.4-0.1-0.7-0.1c-0.5,0-1,0.1-1.5,0.1c-0.5,0-1,0-1.5,0c-0.5,0-1,0-1.5,0
			c-0.5,0-1,0.1-1.5,0.2c-0.6,0.1-1,0.4-1.2,0.7c-0.2,0.3-0.4,0.7-0.4,1.3c0,0.6-0.1,1.2-0.2,1.9c-0.1,0.6-0.2,1.2-0.2,1.9
			c0,0.4-0.1,0.7-0.3,0.9c-0.1,0.2-0.3,0.4-0.5,0.5c-0.2,0.1-0.4,0.2-0.7,0.3c-0.2,0.1-0.5,0.1-0.7,0.1c-0.2,0-0.4-0.1-0.5-0.2
			c-0.1-0.1-0.1-0.3-0.1-0.5c0-0.2,0-0.4,0-0.6c0-0.2,0-0.4,0-0.6c0-0.8,0-1.6,0-2.4C104.2,94.6,104.2,93.8,104.2,92.9z"/>
		<path d="M129.9,101.8c0.1-1.4,0-2.7-0.3-3.9c-0.3-1.2-0.8-2.3-1.4-3.3c-0.6-1-1.4-2-2.2-2.9c-0.8-0.9-1.8-1.8-2.7-2.6
			c-0.2-0.2-0.4-0.4-0.7-0.5c-0.3-0.2-0.5-0.4-0.7-0.6c-0.2-0.2-0.3-0.4-0.4-0.7c0-0.2,0-0.5,0.3-0.8c0.3-0.3,0.5-0.4,0.8-0.4
			c0.3,0,0.5,0.1,0.7,0.3c0.2,0.2,0.4,0.4,0.7,0.7c0.2,0.3,0.4,0.5,0.6,0.6c0.6,0.5,1.2,1.1,1.8,1.7c0.6,0.6,1.1,1.2,1.6,1.9
			c0.4,0.5,0.7,0.8,1,1c0.3,0.2,0.6,0.3,0.9,0.2c0.3,0,0.6-0.2,1-0.4c0.3-0.2,0.7-0.5,1-0.8c0.9-0.9,1.8-1.7,2.8-2.5
			c0.9-0.8,1.9-1.6,2.9-2.3c0.2-0.1,0.4-0.3,0.6-0.5c0.2-0.2,0.4-0.4,0.7-0.5s0.5-0.2,0.7-0.2c0.3,0,0.5,0.1,0.7,0.4
			c0.3,0.3,0.4,0.6,0.4,0.8c0,0.2-0.2,0.4-0.4,0.6c-0.2,0.2-0.4,0.4-0.7,0.5c-0.3,0.1-0.5,0.3-0.7,0.5c-0.8,0.8-1.6,1.5-2.4,2.3
			c-0.8,0.7-1.7,1.4-2.7,1.9c-0.7,0.4-1.2,0.9-1.6,1.4c-0.4,0.5-0.6,1.1-0.7,1.6c-0.1,0.6-0.1,1.2-0.1,1.8c0,0.6,0.1,1.2,0.1,1.9
			c0,0.6,0.1,1.2,0.2,1.9c0.1,0.6,0.2,1.2,0.3,1.8c0.1,0.5,0.1,1,0,1.4c-0.2,0.4-0.5,0.6-1.1,0.6c-0.3,0-0.5,0-0.7-0.1
			s-0.3-0.2-0.4-0.4c-0.1-0.2-0.1-0.4-0.1-0.6c0-0.2,0-0.4,0-0.7c0-0.1,0-0.3,0-0.4C129.9,102.1,129.9,102,129.9,101.8z"/>
		<path d="M141.8,90.1c-0.1-1.1-0.1-2.2,0.1-3.4c0.2-1.2,0.3-2.4,0.3-3.6c0-0.9,0.6-1.4,1.5-1.5c1.3-0.1,2.6-0.1,3.8,0
			c1.2,0.1,2.5,0.2,3.8,0.4c0.1,0,0.1,0,0.2,0c0.1,0,0.1,0,0.2,0c0.1,0.1,0.3,0.1,0.4,0.2c0.1,0.1,0.3,0.1,0.4,0.2s0.2,0.2,0.3,0.3
			c0.1,0.1,0.1,0.3,0.1,0.4c0,0.4-0.2,0.7-0.5,0.8c-0.3,0.1-0.6,0.2-1,0.2c-0.7,0-1.3,0-1.9-0.1c-0.6-0.1-1.2-0.2-1.9-0.3
			c-0.7,0-1.2-0.1-1.6-0.1s-0.7,0.1-0.9,0.3c-0.2,0.2-0.4,0.5-0.4,0.8c-0.1,0.4-0.1,0.9-0.2,1.6c0,0.1,0,0.2,0,0.3
			c0,0.1,0,0.2,0,0.3c0,0.6,0,1.1,0,1.4s0.1,0.6,0.2,0.8c0.1,0.2,0.4,0.3,0.7,0.3c0.3,0,0.8,0.1,1.4,0.1c0.4,0,0.9,0,1.3,0
			s0.9,0,1.3,0.1c0.3,0,0.5,0.1,0.7,0.4c0.1,0.4,0,0.7-0.3,0.9c-0.5,0.4-1,0.7-1.6,0.8c-0.6,0.1-1.2,0.2-1.8,0.2c-0.5,0-0.8,0-1.1,0
			c-0.3,0-0.4,0.1-0.5,0.2c-0.1,0.1-0.2,0.3-0.2,0.6c0,0.3,0,0.6,0,1.1c0,0.4,0,0.9,0,1.3c0,0.4,0,0.9,0.1,1.3
			c0,0.5,0.1,0.9,0.3,1.2c0.1,0.3,0.3,0.6,0.5,0.8c0.2,0.2,0.5,0.3,0.9,0.4c0.4,0,0.8,0,1.3,0c0.2,0,0.5-0.1,0.7-0.1
			c0.2,0,0.5-0.1,0.7-0.1c0.3,0,0.5,0,0.8,0c0.3,0,0.5,0,0.8,0.1c0.1,0,0.2,0,0.4,0c0.1,0,0.3,0,0.4,0.1c0.1,0,0.2,0.1,0.3,0.2
			c0.1,0.1,0.1,0.2,0.2,0.4c0,0.4-0.1,0.7-0.3,0.8c-0.3,0.1-0.5,0.2-0.9,0.3c-0.6,0.1-1.2,0.2-1.8,0.3c-0.6,0.1-1.2,0.1-1.8,0.2
			c-1.4,0.1-2.4-0.1-3.1-0.6c-0.7-0.5-1.2-1.4-1.5-2.8c-0.3-1.2-0.5-2.5-0.6-3.8C141.9,92.9,141.8,91.5,141.8,90.1z"/>
		<path d="M164.4,90.4c0.1-0.5,0.1-1,0-1.5c0-0.5-0.1-1.1-0.3-1.6s-0.3-1.1-0.4-1.7c-0.1-0.6-0.3-1.1-0.4-1.7c0-0.2-0.1-0.3-0.1-0.5
			c0-0.2,0-0.3,0-0.5c0-0.2,0-0.3,0.1-0.4c0.1-0.1,0.2-0.2,0.5-0.3c0.4-0.1,0.8-0.1,1.1,0.1s0.5,0.5,0.7,1c0.7,2,1.2,4.1,1.4,6.1
			c0.2,2,0,4.1-0.5,6.2c-0.2,0.7-0.4,1.3-0.8,2s-0.8,1.3-1.3,1.9c-0.5,0.6-1.1,1-1.8,1.4c-0.7,0.4-1.5,0.5-2.4,0.5
			c-0.6,0-1.1-0.1-1.6-0.2c-0.5-0.1-1-0.3-1.4-0.6c-0.4-0.2-0.9-0.5-1.3-0.8c-0.4-0.3-0.8-0.6-1.2-1c-0.3-0.2-0.4-0.5-0.3-0.9
			c0-0.4,0.2-0.7,0.5-1c0.2-0.1,0.3-0.2,0.5-0.3c0.1,0,0.3,0,0.4,0c0.1,0,0.3,0.1,0.4,0.2c0.1,0.1,0.2,0.2,0.4,0.3
			c0,0,0.1,0.1,0.1,0.1s0,0,0.1,0.1c2.9,2.7,5.2,2.2,7-1.4c0.2-0.4,0.4-0.8,0.5-1.1c0.1-0.4,0.2-0.7,0.3-1.1
			c0.1-0.4,0.1-0.9,0.1-1.4C164.4,91.8,164.4,91.1,164.4,90.4z"/>
		<path d="M172.4,91.1c-0.1,1.4-0.1,2.7-0.2,4s-0.1,2.7-0.2,4c0,0.5-0.2,1-0.5,1.3c-0.3,0.3-0.7,0.4-1.4,0.4c-0.4,0-0.7-0.1-0.8-0.3
			c-0.2-0.1-0.3-0.3-0.3-0.5c0-0.2,0-0.4,0-0.6c0-0.2,0.1-0.4,0.1-0.6c0.2-1,0.4-1.9,0.4-2.9c0.1-1,0.1-1.9,0.1-2.9c0-1,0-1.9,0-2.9
			s0-1.9,0.1-2.9c0-0.2,0-0.4,0-0.5c0-0.2,0-0.4,0-0.5c0.1-0.2,0.1-0.4,0.1-0.7c0-0.3,0.1-0.5,0.1-0.8c0.1-0.2,0.2-0.4,0.4-0.6
			c0.2-0.1,0.5-0.2,0.9-0.1c0.4,0,0.7,0.1,0.8,0.3c0.2,0.2,0.3,0.4,0.3,0.6c0,0.2,0,0.5,0,0.8c0,0.3,0,0.5,0,0.8c0,0.4,0,0.8,0,1.4
			c0,0.5,0,1,0,1.5c0,0.5,0,0.9,0,1.2C172.4,90.9,172.4,91.1,172.4,91.1z"/>
	</g>
</g>
</svg>
