<?xml version="1.0" encoding="utf-8"?>
<!-- Generator: Adobe Illustrator 23.1.0, SVG Export Plug-In . SVG Version: 6.00 Build 0)  -->
<svg version="1.1" id="Layer_1" xmlns="http://www.w3.org/2000/svg" xmlns:xlink="http://www.w3.org/1999/xlink" x="0px" y="0px"
	 viewBox="0 0 512 512" style="enable-background:new 0 0 512 512;" xml:space="preserve">
<style type="text/css">
	.st0{fill:#FEC24A;}
	.st1{fill:#231815;}
</style>
<g>
	<g>
		<polygon class="st0" points="6.8,145.1 368.2,5.6 507.2,368.2 145.9,507.7 		"/>
	</g>
	<g>
		<rect x="46.1" y="44.6" class="st1" width="390.2" height="6.1"/>
	</g>
	<g>
		<rect x="465.1" y="29.4" class="st1" width="6.1" height="391.6"/>
	</g>
	<g>
		<rect x="118.8" y="442.2" class="st1" width="390.2" height="6.1"/>
	</g>
	<g>
		<rect x="67.3" y="82.4" class="st1" width="6.1" height="391.6"/>
	</g>
	<g>
		<path d="M82,251.9c0.6-1.9,0.9-3.7,1-5.7c0.1-2,0.2-4,0.2-6s0-4.1-0.1-6.2c-0.1-2,0-4.2,0.2-6.2c0.1-0.6,0.2-1.1,0.3-1.6
			c0.1-0.6,0.2-1,0.5-1.4c0.6-1,1.7-2,3.2-3s3.3-2,5.1-2.7c1.9-0.8,3.6-1.4,5.4-1.8c1.8-0.4,3.2-0.5,4.3-0.2
			c1.9,0.4,3.7,1.2,5.3,2.1c1.6,1,3.1,2.2,4.3,3.6c1.2,1.4,2.3,3,3.2,4.8c0.9,1.8,1.4,3.7,1.7,5.8c0.5,3.3,0,6.4-1.5,9.4
			c-1.5,3-3.9,5.3-7.1,6.9c-2.3,1.2-4.6,2.3-6.9,3.3c-2.3,1-4.8,1.7-7.3,1.9c-1.7,0.1-2.8,0.6-3.5,1.3c-0.6,0.7-0.9,1.9-0.7,3.5
			c0.1,1.6,0.3,3.2,0.5,4.8s0.4,3.2,0.4,4.8c0.1,1.1-0.1,2-0.4,2.9c-0.4,0.9-1.2,1.4-2.3,1.8c-0.7,0.2-1.3,0.2-1.7,0.1
			c-0.4-0.2-0.7-0.5-1-0.9s-0.4-0.8-0.6-1.3s-0.3-0.9-0.5-1.4c-0.4-0.7-0.6-1.6-0.7-2.6c-0.2-2.5-0.5-5.1-0.8-7.7
			C82.5,257.7,82.3,254.9,82,251.9z M90.2,242.1c-0.1,1.8-0.1,3.2-0.1,4.2c0.1,1,0.3,1.6,0.7,1.9c0.4,0.3,1.1,0.4,2.1,0.2
			c1-0.1,2.3-0.4,4.1-0.8c1.3-0.3,2.5-0.8,3.5-1.5c1-0.7,2.1-1.2,3.3-1.7c6.7-2.7,9-7.3,7-13.6c-0.9-2.9-2.5-5-4.8-6.4
			c-2.3-1.4-4.9-1.7-7.8-1.1c-1.9,0.4-3.5,1-4.8,1.6c-1.2,0.6-2.2,1.4-2.8,2.4c-0.7,1-1,2.2-1.2,3.6c-0.1,1.4-0.1,3.2,0.2,5.2
			c0.1,1,0.2,2,0.3,3C90,240.1,90,241.1,90.2,242.1z"/>
		<path d="M120.3,268.5c0.1-1.9,0.2-3.8,0.6-5.6c0.4-1.9,0.7-3.7,1.2-5.5c0.5-1.9,1-3.7,1.5-5.5c0.6-1.8,1-3.6,1.5-5.5
			c0.6-2,1-4.1,1.4-6.2s0.8-4.2,1.2-6.3c0.4-2.1,0.9-4.2,1.4-6.2s1.2-4.1,2-6.1c0.3-0.7,0.6-1.4,0.7-2.2s0.4-1.5,0.7-2.2
			c0.3-0.7,0.7-1.3,1.1-1.8c0.4-0.5,1-0.8,1.7-0.9c0.9-0.1,1.7-0.1,2.5,0.2c0.7,0.2,1.5,0.7,2.2,1.2s1.3,1.2,1.9,1.9
			c0.6,0.7,1.1,1.4,1.6,2.1c2.5,3.7,4.8,7.6,7,11.5c2.1,4,3.9,8.1,5.3,12.5c0.4,1.2,1,2.6,1.8,4.3c0.8,1.7,1.6,3.4,2.5,5.2
			s1.6,3.5,2.3,5.3c0.7,1.7,1.1,3.2,1.4,4.5c0.1,0.6,0.2,1.1,0.4,1.6c0.2,0.6,0.3,1.1,0.4,1.6c0.1,0.6,0,1-0.1,1.4
			c-0.2,0.4-0.6,0.7-1.2,1c-0.7,0.2-1.4,0.2-1.9,0.1c-0.6-0.2-1.1-0.5-1.6-1s-0.9-0.9-1.2-1.5c-0.3-0.6-0.5-1.1-0.5-1.5
			c-0.2-1.7-0.6-3.2-1-4.7c-0.5-1.4-1.2-2.7-2.1-3.7c-0.9-1-2-1.7-3.4-2.1c-1.4-0.4-2.9-0.4-4.8,0c-2.5,0.5-4.9,0.7-7.3,0.7
			c-2.4,0-4.9-0.1-7.3-0.1c-1.3-0.1-2.2,0.1-2.8,0.5c-0.6,0.4-1,1.2-1.2,2.5c-0.4,1.9-0.9,3.8-1.4,5.6c-0.5,1.9-1,3.7-1.5,5.6
			c-0.2,0.7-0.4,1.4-0.7,2.1c-0.3,0.7-0.9,1-1.9,0.8c-0.6-0.1-0.9-0.2-1.2-0.5c-0.3-0.3-0.5-0.6-0.6-0.9c-0.1-0.4-0.2-0.7-0.2-1.2
			C120.4,269.3,120.3,268.9,120.3,268.5z M139.5,250.8c1.3-0.2,2.7-0.5,4.3-0.7c1.6-0.2,3.3-0.5,5-0.7c2.5-0.3,3.1-1.5,1.9-3.7
			c-1.8-3-3.4-6.1-4.8-9.4c-1.4-3.2-3.1-6.3-5.2-9.1c-0.2-0.3-0.4-0.6-0.6-1c-0.2-0.4-0.4-0.6-0.6-0.9c-0.2-0.2-0.5-0.4-0.8-0.6
			c-0.3-0.1-0.7-0.2-1.2-0.1c-0.7,0.1-1.2,0.5-1.4,1.2c-0.2,0.7-0.4,1.3-0.5,2c-0.7,2.8-1.3,5.6-1.8,8.3c-0.5,2.8-1.2,5.5-2,8.2
			c-0.7,2.4-0.7,4-0.1,5c0.7,0.9,2.2,1.4,4.5,1.3c0.4-0.1,0.8-0.1,1.3,0C138,250.7,138.6,250.7,139.5,250.8z"/>
		<path d="M180,251.5c0.4,1.9,0.7,3.8,1.1,5.6c0.4,1.9,0.7,3.7,1,5.6c0.1,0.6,0.1,1.3,0.1,1.9c0,0.6-0.1,1.2-0.3,1.7
			c-0.2,0.5-0.6,0.9-1,1.3c-0.5,0.4-1.2,0.6-2.2,0.8c-1,0.1-1.7,0.1-2.2-0.1c-0.4-0.2-0.7-0.6-0.9-1c-0.1-0.4-0.2-0.9-0.2-1.4
			c0-0.6-0.1-1.1-0.1-1.5c-0.6-3.3-1.2-6.5-1.7-9.8c-0.5-3.2-1-6.5-1.5-9.8c-0.5-3.3-1.1-6.5-1.7-9.7c-0.6-3.2-1.4-6.4-2.2-9.7
			c-0.1-0.6-0.2-1.1-0.2-1.7c0-0.6,0.1-1.1,0.3-1.5c0.2-0.4,0.6-0.6,1.2-0.6s1.3,0.4,2.3,1.1c0.5,0.4,0.9,0.5,1.3,0.5
			c0.4,0,0.7-0.1,1-0.3c0.3-0.2,0.6-0.4,0.9-0.7c0.2-0.2,0.6-0.6,0.9-0.8c8-6,16.9-7.9,26.7-5.6c1.3,0.3,2.5,0.9,3.8,1.7
			s2.3,1.9,3.3,3.1c1,1.2,1.7,2.5,2.3,3.8c0.6,1.4,0.9,2.7,1,4c0.1,0.9-0.1,1.7-0.5,2.3c-0.4,0.6-0.9,1.2-1.5,1.9
			c-1.6,1.6-3.3,2.9-5.3,3.9c-2,1-3.9,1.9-5.8,2.9c-1,0.5-1.8,1-2.5,1.4c-0.7,0.4-1.1,1-1.3,1.5c-0.2,0.6-0.1,1.2,0.2,1.9
			c0.4,0.7,1,1.5,2,2.5c2.3,2.3,4.5,4.7,6.5,7.3c2,2.5,4.2,5,6.4,7.4c1.2,1.2,1.8,2.3,1.7,3.3c0,1-0.7,2-1.9,3
			c-0.7,0.6-1.3,0.9-1.8,0.9s-1,0-1.4-0.2c-0.4-0.2-0.8-0.6-1.2-1.1c-0.4-0.4-0.8-0.9-1.2-1.4c-2.5-3-5.1-6-7.5-8.9
			c-2.5-2.9-5-5.9-7.5-9c-1-1.3-2.2-1.9-3.3-2c-1.2,0-2.3,0.2-3.5,0.6c-0.6,0.2-1,0.4-1.5,0.7s-0.9,0.6-1.2,1
			c-0.4,0.4-0.6,0.9-0.7,1.4S179.8,250.7,180,251.5z M176.4,230.5c0.4,2.6,0.9,4.6,1.2,6.1c0.4,1.4,0.9,2.4,1.7,2.9
			c0.7,0.5,1.7,0.6,2.9,0.2c1.2-0.3,3-0.9,5.1-1.6c2.8-1,5.6-2.2,8.2-3.5c2.7-1.3,5.3-2.7,8-4c0.4-0.2,0.8-0.4,1.3-0.6
			c0.5-0.2,0.9-0.5,1.2-0.8s0.7-0.7,0.9-1.1c0.2-0.4,0.2-1,0.1-1.7c-0.4-1.9-1.6-3.3-3.7-4.3c-1.6-0.7-3.6-1.2-6-1.2
			c-2.4-0.1-4.8,0.1-7.3,0.5c-2.5,0.4-4.8,1.1-7,2c-2.2,0.9-3.9,2-5.1,3.2c-0.6,0.6-0.9,1.2-1.2,1.8
			C176.4,229,176.3,229.7,176.4,230.5z"/>
		<path d="M279.9,246.7c0.2-1.5,0.3-3.1,0.4-4.7s0.1-3.2,0.2-4.9c0.1-1.7,0.2-3.3,0.4-5c0.2-1.7,0.4-3.3,0.9-5
			c0.2-0.8,0.4-1.6,0.5-2.4c0.1-0.8,0.4-1.6,0.7-2.4c0.4-0.9,0.9-1.6,1.6-2.2c0.7-0.6,1.5-0.8,2.6-0.5c1.1,0.3,1.7,0.9,1.9,1.8
			c0.1,0.9,0.1,1.8,0,2.7c-0.2,1.6-0.5,3.2-0.8,4.8c-0.2,1.6-0.6,3.2-0.9,4.8c-0.3,1.5-0.2,2.7,0.2,3.5c0.4,0.9,1.5,1.3,3.5,1.4
			c3,0.1,6,0.1,9,0.3c3,0.1,5.9,0.1,9-0.1c1.6-0.1,2.8-0.5,3.5-1.2c0.7-0.7,1.2-1.9,1.4-3.3c0.2-1.6,0.6-3.2,0.9-4.8
			c0.4-1.6,0.7-3.2,1.1-4.8c0.1-0.6,0.2-1.1,0.4-1.6c0.1-0.5,0.4-1,0.7-1.4c0.3-0.4,0.7-0.7,1.1-0.9c0.4-0.2,1-0.2,1.8-0.1
			c0.7,0.1,1.3,0.4,1.6,0.8c0.4,0.4,0.6,0.8,0.7,1.3c0.1,0.5,0.1,1.1,0.1,1.6s-0.1,1.1-0.2,1.6c-0.6,4.2-1.2,8.3-1.9,12.3
			s-1.2,8.2-1.9,12.3c-0.2,1.4-0.4,2.9-0.6,4.3c-0.1,1.4,0,2.9,0.4,4.4c0.4,1,0.3,1.9-0.1,2.7s-1,1.4-1.9,1.9
			c-0.4,0.2-0.8,0.4-1.2,0.7c-0.4,0.2-0.9,0.5-1.2,0.7s-0.9,0.3-1.2,0.3c-0.4,0.1-0.8,0-1.2-0.2c-0.4-0.2-0.7-0.5-0.9-0.9
			c-0.2-0.4-0.4-0.8-0.4-1.2c-0.1-0.4-0.1-0.9-0.1-1.4c0-0.5,0.1-1,0.1-1.4c0.2-2,0.4-4,0.7-5.9c0.2-2,0.5-4,0.6-6
			c0.1-0.5,0.1-1,0.1-1.5s-0.1-1-0.3-1.4c-0.2-0.4-0.4-0.7-0.9-1s-1-0.3-1.7-0.2c-1.4,0.1-2.7,0.2-4,0.2c-1.4,0-2.7,0-4.1,0
			s-2.7,0.1-4.1,0.1c-1.4,0.1-2.7,0.2-4,0.6c-1.6,0.4-2.7,1-3.3,1.7c-0.6,0.7-0.9,1.9-1,3.4c-0.1,1.6-0.2,3.3-0.5,4.9
			c-0.2,1.6-0.4,3.2-0.5,4.9c-0.1,0.9-0.2,1.7-0.7,2.3c-0.4,0.6-0.9,1.1-1.4,1.4c-0.6,0.4-1.1,0.6-1.8,0.8c-0.6,0.2-1.2,0.2-1.7,0.2
			c-0.6,0-1-0.2-1.2-0.5c-0.2-0.3-0.4-0.7-0.4-1.2s0-1.1,0.1-1.7c0.1-0.6,0.1-1.1,0.1-1.5c-0.1-2.1-0.1-4.3-0.1-6.4
			C279.9,251.2,279.9,249,279.9,246.7z"/>
		<path d="M347.7,270.3c0.4-3.7,0.1-7.1-0.7-10.3c-0.9-3.1-2.1-6-3.8-8.7c-1.7-2.7-3.6-5.3-5.9-7.6c-2.2-2.4-4.6-4.7-7.1-7
			c-0.6-0.4-1.2-0.9-1.9-1.4c-0.7-0.5-1.4-1-1.9-1.5c-0.6-0.6-0.9-1.1-1-1.8c-0.1-0.6,0.1-1.4,0.8-2.2c0.7-0.8,1.4-1.2,2.1-1.2
			s1.3,0.3,1.9,0.8c0.6,0.5,1.2,1.1,1.7,1.7c0.6,0.7,1,1.2,1.5,1.7c1.6,1.4,3.2,2.9,4.8,4.5c1.6,1.5,3,3.2,4.3,4.9
			c0.9,1.2,1.9,2.1,2.7,2.6s1.7,0.7,2.5,0.6c0.8-0.1,1.7-0.4,2.5-1c0.9-0.6,1.8-1.4,2.7-2.2c2.3-2.3,4.8-4.5,7.3-6.6
			c2.5-2.1,5-4.2,7.7-6.1c0.5-0.4,1-0.9,1.6-1.4c0.6-0.6,1.2-1.1,1.8-1.4c0.6-0.4,1.2-0.6,1.9-0.6s1.3,0.4,1.9,1.2
			c0.7,0.9,1,1.5,0.9,2.2c-0.1,0.6-0.4,1.2-1,1.7c-0.5,0.5-1.1,0.9-1.9,1.4c-0.7,0.4-1.3,0.8-1.7,1.2c-2.1,2-4.3,4-6.4,5.9
			c-2.2,1.9-4.5,3.6-7,5.1c-1.9,1.1-3.2,2.3-4.1,3.7c-0.9,1.4-1.5,2.8-1.8,4.3c-0.3,1.5-0.4,3.1-0.3,4.7c0.1,1.6,0.2,3.3,0.4,5
			c0.1,1.6,0.3,3.3,0.6,4.9c0.2,1.6,0.5,3.2,0.9,4.8c0.4,1.4,0.3,2.6-0.1,3.6s-1.4,1.5-2.8,1.5c-0.7,0.1-1.3-0.1-1.7-0.3
			c-0.4-0.2-0.7-0.6-0.9-1.1c-0.2-0.4-0.3-0.9-0.3-1.5c0-0.6,0-1.2,0.1-1.7c0.1-0.4,0.1-0.7,0.1-1.1
			C347.7,271.1,347.7,270.7,347.7,270.3z"/>
		<path d="M379.3,239.4c-0.2-2.9-0.2-5.9,0.2-9c0.4-3.1,0.7-6.3,0.9-9.5c0.1-2.5,1.5-3.8,4.1-4c3.4-0.2,6.8-0.2,10.1,0.1
			s6.7,0.6,10,1c0.2,0.1,0.4,0.1,0.6,0.1s0.3,0.1,0.5,0.1c0.4,0.2,0.7,0.4,1.1,0.6c0.4,0.2,0.7,0.4,1.1,0.6c0.4,0.2,0.6,0.5,0.8,0.8
			c0.2,0.3,0.2,0.7,0.2,1.2c-0.1,1.1-0.6,1.7-1.4,2c-0.8,0.2-1.7,0.4-2.7,0.5c-1.7,0.1-3.4,0-5.1-0.3s-3.3-0.6-4.9-0.7
			c-1.9-0.1-3.3-0.2-4.3-0.2c-1,0-1.8,0.2-2.3,0.7c-0.6,0.5-0.9,1.2-1.2,2.2c-0.2,1-0.4,2.4-0.6,4.3c-0.1,0.3-0.1,0.6-0.1,0.9
			s0,0.6-0.1,0.8c-0.1,1.6-0.1,2.9-0.1,3.8s0.2,1.5,0.6,2c0.4,0.4,1,0.7,1.8,0.8c0.9,0.1,2,0.2,3.6,0.2c1.1,0.1,2.3,0.1,3.5,0.1
			s2.3,0.1,3.5,0.2c0.9,0,1.4,0.4,1.7,1.1c0.4,0.9,0.1,1.7-0.7,2.4c-1.3,1.1-2.7,1.9-4.2,2.2c-1.5,0.3-3.1,0.6-4.7,0.6
			c-1.2,0.1-2.2,0.1-2.8,0.1c-0.7,0.1-1.2,0.2-1.4,0.6c-0.3,0.3-0.4,0.8-0.5,1.5c0,0.7,0,1.7,0.1,2.9c0.1,1.1,0.1,2.3,0.1,3.5
			c0.1,1.2,0.1,2.3,0.3,3.5c0.1,1.3,0.4,2.4,0.7,3.2c0.4,0.9,0.8,1.5,1.4,2c0.6,0.5,1.4,0.8,2.3,0.9c0.9,0.1,2,0.1,3.4,0.1
			c0.6-0.1,1.2-0.2,1.9-0.3s1.2-0.2,1.9-0.2c0.7-0.1,1.4-0.1,2.1-0.1c0.7,0,1.4,0.1,2.1,0.2c0.3,0.1,0.6,0.1,1,0.1
			c0.4,0.1,0.7,0.1,1,0.3c0.3,0.1,0.6,0.4,0.8,0.6c0.2,0.2,0.4,0.6,0.4,1.1c0.1,1.1-0.2,1.7-0.9,2.1c-0.7,0.4-1.4,0.6-2.3,0.7
			c-1.6,0.2-3.1,0.5-4.8,0.7c-1.6,0.2-3.1,0.4-4.8,0.5c-3.6,0.3-6.4-0.2-8.2-1.5c-1.9-1.4-3.1-3.8-4-7.3c-0.9-3.3-1.4-6.6-1.6-10
			C379.4,246.7,379.3,243.1,379.3,239.4z"/>
		<path d="M438.9,240c0.2-1.3,0.2-2.6,0.1-4c-0.1-1.4-0.4-2.8-0.7-4.2c-0.3-1.4-0.7-2.9-1-4.4c-0.4-1.5-0.7-3-1-4.5
			c-0.1-0.4-0.2-0.9-0.3-1.4s-0.1-0.9-0.1-1.3s0.1-0.8,0.4-1.2c0.2-0.4,0.6-0.6,1.2-0.8c1.1-0.4,2.1-0.3,2.8,0.2s1.3,1.4,1.7,2.5
			c1.9,5.3,3.1,10.7,3.6,16.1c0.5,5.4,0.1,10.9-1.4,16.4c-0.5,1.7-1.2,3.5-2.1,5.3c-0.9,1.8-2,3.5-3.5,5c-1.4,1.5-3,2.7-4.9,3.7
			c-1.9,1-4,1.4-6.4,1.4c-1.5,0-2.9-0.2-4.2-0.5c-1.3-0.4-2.5-0.9-3.7-1.5c-1.2-0.6-2.3-1.4-3.3-2.2c-1-0.8-2.1-1.7-3.1-2.5
			c-0.7-0.6-1-1.4-0.9-2.4c0.1-0.9,0.6-1.8,1.3-2.5c0.4-0.4,0.9-0.6,1.2-0.7c0.4-0.1,0.7,0,1,0.1c0.4,0.1,0.7,0.4,1,0.6
			s0.6,0.6,0.9,0.8c0.1,0.1,0.2,0.2,0.2,0.2s0.1,0.1,0.2,0.2c7.5,7.1,13.7,5.9,18.5-3.8c0.6-1.1,1-2.1,1.3-3c0.3-0.9,0.6-1.9,0.7-3
			c0.2-1.1,0.2-2.3,0.3-3.7C439,243.7,439,242.1,438.9,240z"/>
		<path d="M460.1,241.9c-0.2,3.6-0.4,7.1-0.5,10.7c-0.1,3.5-0.3,7.1-0.6,10.7c-0.1,1.4-0.6,2.5-1.4,3.4c-0.8,0.9-2,1.2-3.6,1.1
			c-1-0.1-1.8-0.2-2.2-0.7c-0.4-0.4-0.7-0.9-0.8-1.4c-0.1-0.5-0.1-1.1,0.1-1.7c0.1-0.6,0.2-1.1,0.4-1.5c0.6-2.5,0.9-5.1,1-7.6
			c0.2-2.5,0.2-5.1,0.2-7.6s0-5.1,0-7.6c0-2.5,0.1-5.1,0.4-7.6c0.1-0.4,0.1-0.9-0.1-1.4c-0.1-0.5-0.1-0.9,0.1-1.4
			c0.2-0.6,0.3-1.2,0.4-1.9c0.1-0.7,0.2-1.4,0.4-2c0.2-0.6,0.6-1.1,1-1.5c0.5-0.4,1.2-0.5,2.3-0.3c1,0.1,1.8,0.4,2.2,0.8
			c0.4,0.4,0.7,1,0.8,1.6c0.1,0.6,0.1,1.3,0,2c-0.1,0.7-0.1,1.4-0.1,2c0,1,0,2.2-0.1,3.6c-0.1,1.4-0.1,2.7-0.1,4
			c0,1.2-0.1,2.3-0.1,3.2C460,241.4,460,241.9,460.1,241.9z"/>
	</g>
</g>
</svg>
