<?xml version="1.0" encoding="utf-8"?>
<!-- Generator: Adobe Illustrator 23.1.0, SVG Export Plug-In . SVG Version: 6.00 Build 0)  -->
<svg version="1.1" id="Layer_1" xmlns="http://www.w3.org/2000/svg" xmlns:xlink="http://www.w3.org/1999/xlink" x="0px" y="0px"
	 viewBox="0 0 512 512" style="enable-background:new 0 0 512 512;" xml:space="preserve">
<style type="text/css">
	.st0{fill:#FEC24A;}
	.st1{fill:none;stroke:#000000;stroke-width:3.0594;stroke-miterlimit:10;}
</style>
<g>
	<g>
		
			<rect x="61.5" y="55" transform="matrix(1 -2.488479e-03 2.488479e-03 1 -0.6195 0.6372)" class="st0" width="388.5" height="388.5"/>
	</g>
	<g>
		<path d="M65.9,255.4c0.6-1.9,0.9-3.7,1.1-5.7c0.1-2,0.2-4,0.2-6s0-4.1-0.1-6.2c-0.1-2,0-4.2,0.2-6.2c0.1-0.6,0.2-1.1,0.3-1.6
			c0.1-0.6,0.2-1,0.5-1.4c0.6-1,1.7-2,3.2-3s3.3-2,5.1-2.7c1.9-0.8,3.7-1.4,5.5-1.8c1.8-0.4,3.2-0.5,4.3-0.2
			c1.9,0.4,3.7,1.2,5.3,2.1c1.6,1,3.1,2.2,4.3,3.6c1.2,1.4,2.4,3,3.2,4.8c0.9,1.8,1.4,3.7,1.7,5.8c0.5,3.3,0,6.4-1.5,9.4
			c-1.5,3-3.9,5.3-7.1,6.9c-2.3,1.2-4.6,2.3-6.9,3.3c-2.4,1-4.8,1.7-7.4,1.9c-1.7,0.1-2.9,0.6-3.5,1.3c-0.6,0.7-0.9,1.9-0.7,3.5
			c0.1,1.6,0.3,3.2,0.5,4.8s0.4,3.2,0.4,4.8c0.1,1.1-0.1,2-0.4,2.9s-1.2,1.4-2.4,1.8c-0.7,0.2-1.3,0.2-1.7,0.1
			c-0.4-0.2-0.7-0.5-1-0.9c-0.2-0.4-0.4-0.8-0.6-1.3c-0.2-0.5-0.3-0.9-0.5-1.4c-0.4-0.7-0.6-1.6-0.7-2.6c-0.2-2.5-0.5-5.1-0.8-7.7
			C66.3,261.2,66.2,258.4,65.9,255.4z M74.1,245.6c-0.1,1.8-0.1,3.2-0.1,4.2c0.1,1,0.3,1.6,0.7,1.9c0.4,0.3,1.1,0.4,2.1,0.2
			c1-0.1,2.4-0.4,4.2-0.8c1.3-0.3,2.5-0.8,3.5-1.5c1.1-0.7,2.1-1.2,3.3-1.7c6.7-2.7,9-7.3,7-13.6c-0.9-2.9-2.5-5-4.8-6.4
			c-2.4-1.4-5-1.7-7.8-1.1c-1.9,0.4-3.5,1-4.8,1.6c-1.2,0.6-2.2,1.4-2.9,2.4c-0.7,1-1.1,2.2-1.2,3.6c-0.1,1.4-0.1,3.2,0.2,5.2
			c0.1,1,0.2,2,0.3,3C73.9,243.6,73.9,244.6,74.1,245.6z"/>
		<path d="M104.3,272c0.1-1.9,0.2-3.8,0.6-5.6c0.4-1.9,0.7-3.7,1.2-5.5c0.5-1.9,1-3.7,1.5-5.5c0.6-1.8,1.1-3.6,1.5-5.5
			c0.6-2,1-4.1,1.4-6.2c0.4-2.1,0.8-4.2,1.2-6.3c0.4-2.1,0.9-4.2,1.4-6.2c0.5-2,1.2-4.1,2-6.1c0.3-0.7,0.6-1.4,0.7-2.2
			c0.2-0.8,0.4-1.5,0.7-2.2c0.3-0.7,0.7-1.3,1.1-1.8c0.4-0.5,1-0.8,1.7-0.9c0.9-0.1,1.7-0.1,2.5,0.2c0.7,0.2,1.5,0.7,2.2,1.2
			c0.7,0.6,1.3,1.2,1.9,1.9c0.6,0.7,1.1,1.4,1.6,2.1c2.5,3.7,4.8,7.6,7,11.5c2.1,4,3.9,8.1,5.3,12.5c0.4,1.2,1,2.6,1.8,4.3
			c0.8,1.7,1.6,3.4,2.5,5.2c0.9,1.8,1.6,3.5,2.3,5.3s1.1,3.2,1.4,4.5c0.1,0.6,0.2,1.1,0.4,1.6c0.2,0.6,0.3,1.1,0.4,1.6
			c0.1,0.6,0,1-0.1,1.4c-0.2,0.4-0.6,0.7-1.2,1s-1.4,0.2-1.9,0.1c-0.6-0.2-1.1-0.5-1.6-1c-0.5-0.5-0.9-0.9-1.2-1.5
			c-0.3-0.6-0.5-1.1-0.5-1.5c-0.2-1.7-0.6-3.2-1.1-4.7c-0.5-1.4-1.2-2.7-2.1-3.7c-0.9-1-2-1.7-3.4-2.1c-1.4-0.4-2.9-0.4-4.8,0
			c-2.5,0.5-5,0.7-7.4,0.7c-2.4,0-4.9-0.1-7.4-0.1c-1.3-0.1-2.2,0.1-2.9,0.5c-0.6,0.4-1,1.2-1.2,2.5c-0.4,1.9-0.9,3.8-1.4,5.6
			c-0.5,1.9-1,3.7-1.5,5.6c-0.2,0.7-0.4,1.4-0.7,2.1c-0.3,0.7-0.9,1-1.9,0.8c-0.6-0.1-0.9-0.2-1.2-0.5s-0.5-0.6-0.6-0.9
			s-0.2-0.7-0.2-1.2C104.4,272.8,104.3,272.4,104.3,272z M123.5,254.3c1.3-0.2,2.7-0.5,4.3-0.7c1.6-0.2,3.3-0.5,5-0.7
			c2.5-0.3,3.1-1.5,1.9-3.7c-1.8-3-3.4-6.1-4.8-9.4c-1.4-3.2-3.2-6.3-5.2-9.1c-0.2-0.3-0.4-0.6-0.6-1c-0.2-0.4-0.4-0.6-0.6-0.9
			c-0.2-0.2-0.5-0.4-0.8-0.6c-0.3-0.1-0.7-0.2-1.2-0.1c-0.7,0.1-1.2,0.5-1.4,1.2c-0.2,0.7-0.4,1.3-0.5,2c-0.7,2.8-1.3,5.6-1.8,8.3
			c-0.5,2.8-1.2,5.5-2,8.2c-0.7,2.4-0.7,4-0.1,5c0.7,0.9,2.2,1.4,4.5,1.3c0.4-0.1,0.8-0.1,1.3,0C122,254.2,122.7,254.3,123.5,254.3z
			"/>
		<path d="M164.2,255c0.4,1.9,0.7,3.8,1.1,5.6c0.4,1.9,0.7,3.7,1,5.6c0.1,0.6,0.1,1.3,0.1,1.9c0,0.6-0.1,1.2-0.3,1.7
			c-0.2,0.5-0.6,0.9-1.1,1.3c-0.5,0.4-1.2,0.6-2.2,0.8c-1,0.1-1.7,0.1-2.2-0.1c-0.4-0.2-0.7-0.6-0.9-1c-0.1-0.4-0.2-0.9-0.2-1.4
			c0-0.6-0.1-1.1-0.1-1.5c-0.6-3.3-1.2-6.5-1.7-9.8c-0.5-3.2-1.1-6.5-1.5-9.8s-1.1-6.5-1.7-9.7c-0.6-3.2-1.4-6.4-2.2-9.7
			c-0.1-0.6-0.2-1.1-0.2-1.7c0-0.6,0.1-1.1,0.3-1.5c0.2-0.4,0.6-0.6,1.2-0.6c0.6,0,1.3,0.4,2.3,1.1c0.5,0.4,0.9,0.5,1.3,0.5
			s0.7-0.1,1-0.3s0.6-0.4,0.9-0.7c0.2-0.2,0.6-0.6,0.9-0.8c8.1-6,17-7.9,26.8-5.6c1.3,0.3,2.5,0.9,3.8,1.7c1.2,0.9,2.3,1.9,3.3,3.1
			c1,1.2,1.7,2.5,2.4,3.8c0.6,1.4,0.9,2.7,1.1,4c0.1,0.9-0.1,1.7-0.5,2.3c-0.4,0.6-0.9,1.2-1.5,1.9c-1.6,1.6-3.3,2.9-5.3,3.9
			c-2,1-3.9,1.9-5.8,2.9c-1,0.5-1.8,1-2.5,1.4c-0.7,0.4-1.1,1-1.3,1.5c-0.2,0.6-0.1,1.2,0.2,1.9c0.4,0.7,1,1.5,2,2.5
			c2.4,2.3,4.5,4.7,6.6,7.3c2,2.5,4.2,5,6.4,7.4c1.2,1.2,1.8,2.3,1.7,3.3c0,1-0.7,2-1.9,3c-0.7,0.6-1.3,0.9-1.8,0.9
			c-0.5,0.1-1,0-1.4-0.2c-0.4-0.2-0.8-0.6-1.2-1.1s-0.8-0.9-1.2-1.4c-2.5-3-5.1-6-7.6-8.9c-2.5-2.9-5-5.9-7.5-9
			c-1.1-1.3-2.2-1.9-3.3-2c-1.2,0-2.4,0.2-3.5,0.6c-0.6,0.2-1.1,0.4-1.5,0.7c-0.5,0.2-0.9,0.6-1.2,1c-0.4,0.4-0.6,0.9-0.7,1.4
			C164,253.6,164,254.3,164.2,255z M160.6,234c0.4,2.6,0.9,4.6,1.2,6.1c0.4,1.4,0.9,2.4,1.7,2.9c0.7,0.5,1.7,0.6,2.9,0.2
			c1.2-0.3,3-0.9,5.1-1.6c2.9-1,5.6-2.2,8.2-3.5c2.7-1.3,5.3-2.7,8-4c0.4-0.2,0.8-0.4,1.3-0.6c0.5-0.2,0.9-0.5,1.2-0.8
			s0.7-0.7,0.9-1.1c0.2-0.4,0.2-1,0.1-1.7c-0.4-1.9-1.6-3.3-3.7-4.3c-1.6-0.7-3.6-1.2-6-1.2c-2.4-0.1-4.8,0.1-7.4,0.5
			c-2.5,0.4-4.8,1.1-7.1,2c-2.2,0.9-3.9,2-5.1,3.2c-0.6,0.6-0.9,1.2-1.2,1.8C160.6,232.5,160.5,233.2,160.6,234z"/>
		<path d="M264.5,250.2c0.2-1.5,0.3-3.1,0.4-4.7s0.1-3.2,0.2-4.9c0.1-1.7,0.2-3.3,0.4-5c0.2-1.7,0.4-3.3,0.9-5
			c0.2-0.8,0.4-1.6,0.5-2.4c0.1-0.8,0.4-1.6,0.7-2.4c0.4-0.9,0.9-1.6,1.6-2.2c0.7-0.6,1.5-0.8,2.6-0.5c1.1,0.3,1.7,0.9,1.9,1.8
			c0.1,0.9,0.1,1.8,0,2.7c-0.2,1.6-0.5,3.2-0.8,4.8c-0.2,1.6-0.6,3.2-0.9,4.8c-0.3,1.5-0.2,2.7,0.2,3.5c0.4,0.9,1.5,1.3,3.5,1.4
			c3,0.1,6,0.1,9,0.3c3,0.1,5.9,0.1,9-0.1c1.6-0.1,2.8-0.5,3.5-1.2s1.2-1.9,1.4-3.3c0.2-1.6,0.6-3.2,0.9-4.8
			c0.4-1.6,0.7-3.2,1.1-4.8c0.1-0.6,0.2-1.1,0.4-1.6c0.1-0.5,0.4-1,0.7-1.4c0.3-0.4,0.7-0.7,1.1-0.9c0.4-0.2,1.1-0.2,1.8-0.1
			c0.7,0.1,1.3,0.4,1.6,0.8c0.4,0.4,0.6,0.8,0.7,1.3c0.1,0.5,0.1,1.1,0.1,1.6c-0.1,0.6-0.1,1.1-0.2,1.6c-0.6,4.2-1.2,8.3-1.9,12.3
			c-0.6,4-1.2,8.2-1.9,12.3c-0.2,1.4-0.4,2.9-0.6,4.3c-0.1,1.4,0,2.9,0.4,4.4c0.4,1,0.3,1.9-0.1,2.7c-0.4,0.8-1,1.4-1.9,1.9
			c-0.4,0.2-0.8,0.4-1.2,0.7c-0.4,0.2-0.9,0.5-1.2,0.7c-0.4,0.2-0.9,0.3-1.2,0.3c-0.4,0.1-0.8,0-1.2-0.2c-0.4-0.2-0.7-0.5-0.9-0.9
			c-0.2-0.4-0.4-0.8-0.4-1.2c-0.1-0.4-0.1-0.9-0.1-1.4c0-0.5,0.1-1,0.1-1.4c0.2-2,0.4-4,0.7-5.9c0.2-2,0.5-4,0.6-6
			c0.1-0.5,0.1-1,0.1-1.5c0-0.6-0.1-1-0.3-1.4c-0.2-0.4-0.4-0.7-0.9-1c-0.4-0.2-1-0.3-1.7-0.2c-1.4,0.1-2.7,0.2-4,0.2s-2.7,0-4.1,0
			c-1.4,0-2.7,0.1-4.1,0.1c-1.4,0.1-2.7,0.2-4,0.6c-1.6,0.4-2.7,1-3.3,1.7c-0.6,0.7-0.9,1.9-1,3.4c-0.1,1.6-0.2,3.3-0.5,4.9
			c-0.2,1.6-0.4,3.2-0.5,4.9c-0.1,0.9-0.2,1.7-0.7,2.3c-0.4,0.6-0.9,1.1-1.4,1.4c-0.6,0.4-1.1,0.6-1.8,0.8c-0.6,0.2-1.2,0.2-1.7,0.2
			c-0.6,0-1-0.2-1.2-0.5c-0.2-0.3-0.4-0.7-0.4-1.2c0-0.5,0-1.1,0.1-1.7c0.1-0.6,0.1-1.1,0.1-1.5c-0.1-2.1-0.1-4.3-0.1-6.4
			C264.5,254.7,264.5,252.5,264.5,250.2z"/>
		<path d="M332.5,273.8c0.4-3.7,0.1-7.1-0.7-10.3c-0.9-3.1-2.1-6-3.8-8.7c-1.7-2.7-3.6-5.3-5.9-7.6c-2.2-2.4-4.6-4.7-7.1-7
			c-0.6-0.4-1.2-0.9-1.9-1.4c-0.7-0.5-1.4-1-1.9-1.5c-0.6-0.6-0.9-1.1-1.1-1.8c-0.1-0.6,0.1-1.4,0.8-2.2c0.7-0.8,1.4-1.2,2.1-1.2
			c0.7,0,1.3,0.3,1.9,0.8c0.6,0.5,1.2,1.1,1.7,1.7s1.1,1.2,1.5,1.7c1.6,1.4,3.2,2.9,4.8,4.5s3,3.2,4.3,4.9c0.9,1.2,1.9,2.1,2.7,2.6
			c0.8,0.5,1.7,0.7,2.5,0.6c0.8-0.1,1.7-0.4,2.5-1c0.9-0.6,1.8-1.4,2.7-2.2c2.4-2.3,4.8-4.5,7.3-6.6c2.5-2.1,5-4.2,7.7-6.1
			c0.5-0.4,1.1-0.9,1.6-1.4c0.6-0.6,1.2-1.1,1.8-1.4c0.6-0.4,1.2-0.6,1.9-0.6c0.7,0,1.3,0.4,1.9,1.2c0.7,0.9,1.1,1.5,0.9,2.2
			c-0.1,0.6-0.4,1.2-1,1.7c-0.5,0.5-1.1,0.9-1.9,1.4c-0.7,0.4-1.3,0.8-1.7,1.2c-2.1,2-4.3,4-6.4,5.9c-2.2,1.9-4.5,3.6-7.1,5.1
			c-1.9,1.1-3.2,2.3-4.2,3.7c-0.9,1.4-1.5,2.8-1.8,4.3c-0.3,1.5-0.4,3.1-0.3,4.7c0.1,1.6,0.2,3.3,0.4,5c0.1,1.6,0.3,3.3,0.6,4.9
			c0.2,1.6,0.5,3.2,0.9,4.8c0.4,1.4,0.3,2.6-0.1,3.6c-0.4,1-1.4,1.5-2.9,1.5c-0.7,0.1-1.3-0.1-1.7-0.3c-0.4-0.2-0.7-0.6-0.9-1.1
			c-0.2-0.4-0.3-0.9-0.3-1.5c0-0.6,0-1.2,0.1-1.7c0.1-0.4,0.1-0.7,0.1-1.1C332.5,274.6,332.5,274.2,332.5,273.8z"/>
		<path d="M364.2,242.9c-0.2-2.9-0.2-5.9,0.2-9s0.7-6.3,0.9-9.5c0.1-2.5,1.5-3.8,4.1-4c3.4-0.2,6.8-0.2,10.1,0.1
			c3.3,0.3,6.7,0.6,10,1c0.2,0.1,0.4,0.1,0.6,0.1s0.3,0.1,0.5,0.1c0.4,0.2,0.7,0.4,1.1,0.6s0.7,0.4,1.1,0.6c0.4,0.2,0.6,0.5,0.8,0.8
			s0.2,0.7,0.2,1.2c-0.1,1.1-0.6,1.7-1.4,2c-0.8,0.2-1.7,0.4-2.7,0.5c-1.7,0.1-3.4,0-5.1-0.3c-1.7-0.3-3.3-0.6-5-0.7
			c-1.9-0.1-3.3-0.2-4.3-0.2c-1,0-1.8,0.2-2.4,0.7c-0.6,0.5-0.9,1.2-1.2,2.2c-0.2,1-0.4,2.4-0.6,4.3c-0.1,0.3-0.1,0.6-0.1,0.9
			c0,0.3,0,0.6-0.1,0.8c-0.1,1.6-0.1,2.9-0.1,3.8s0.2,1.5,0.6,2s1,0.7,1.8,0.8c0.9,0.1,2,0.2,3.7,0.2c1.1,0.1,2.3,0.1,3.5,0.1
			s2.3,0.1,3.5,0.2c0.9,0,1.4,0.4,1.7,1.1c0.4,0.9,0.1,1.7-0.7,2.4c-1.3,1.1-2.7,1.9-4.2,2.2c-1.5,0.3-3.1,0.6-4.7,0.6
			c-1.2,0.1-2.2,0.1-2.9,0.1c-0.7,0.1-1.2,0.2-1.4,0.6c-0.3,0.3-0.4,0.8-0.5,1.5c0,0.7,0,1.7,0.1,2.9c0.1,1.1,0.1,2.3,0.1,3.5
			c0.1,1.2,0.1,2.3,0.3,3.5c0.1,1.3,0.4,2.4,0.7,3.2s0.8,1.5,1.4,2c0.6,0.5,1.4,0.8,2.3,0.9c0.9,0.1,2,0.1,3.4,0.1
			c0.6-0.1,1.2-0.2,1.9-0.3c0.6-0.1,1.2-0.2,1.9-0.2c0.7-0.1,1.4-0.1,2.1-0.1c0.7,0,1.4,0.1,2.1,0.2c0.3,0.1,0.6,0.1,1,0.1
			c0.4,0.1,0.7,0.1,1.1,0.3c0.3,0.1,0.6,0.4,0.8,0.6c0.2,0.2,0.4,0.6,0.4,1.1c0.1,1.1-0.2,1.7-0.9,2.1c-0.7,0.4-1.4,0.6-2.3,0.7
			c-1.6,0.2-3.2,0.5-4.8,0.7c-1.6,0.2-3.2,0.4-4.8,0.5c-3.7,0.3-6.4-0.2-8.2-1.5s-3.2-3.8-4-7.3c-0.9-3.3-1.4-6.6-1.6-10
			C364.4,250.2,364.2,246.6,364.2,242.9z"/>
		<path d="M424,243.5c0.2-1.3,0.2-2.6,0.1-4c-0.1-1.4-0.4-2.8-0.7-4.2c-0.3-1.4-0.7-2.9-1.1-4.4c-0.4-1.5-0.7-3-1.1-4.5
			c-0.1-0.4-0.2-0.9-0.3-1.4c-0.1-0.5-0.1-0.9-0.1-1.3s0.1-0.8,0.4-1.2c0.2-0.4,0.6-0.6,1.2-0.8c1.1-0.4,2.1-0.3,2.9,0.2
			c0.7,0.6,1.3,1.4,1.7,2.5c1.9,5.3,3.2,10.7,3.7,16.1c0.5,5.4,0.1,10.9-1.4,16.4c-0.5,1.7-1.2,3.5-2.1,5.3c-0.9,1.8-2,3.5-3.5,5
			c-1.4,1.5-3,2.7-4.9,3.7c-1.9,1-4,1.4-6.4,1.4c-1.5,0-2.9-0.2-4.2-0.5c-1.3-0.4-2.5-0.9-3.7-1.5c-1.2-0.6-2.3-1.4-3.3-2.2
			c-1.1-0.8-2.1-1.7-3.2-2.5c-0.7-0.6-1-1.4-0.9-2.4c0.1-0.9,0.6-1.8,1.3-2.5c0.4-0.4,0.9-0.6,1.2-0.7c0.4-0.1,0.7,0,1.1,0.1
			c0.4,0.1,0.7,0.4,1,0.6s0.6,0.6,0.9,0.8c0.1,0.1,0.2,0.2,0.2,0.2c0.1,0,0.1,0.1,0.2,0.2c7.6,7.1,13.8,5.9,18.6-3.8
			c0.6-1.1,1-2.1,1.3-3c0.3-0.9,0.6-1.9,0.7-3c0.2-1.1,0.2-2.3,0.3-3.7C424.1,247.2,424.1,245.6,424,243.5z"/>
		<path d="M445.3,245.4c-0.2,3.6-0.4,7.1-0.5,10.7c-0.1,3.5-0.3,7.1-0.6,10.7c-0.1,1.4-0.6,2.5-1.4,3.4s-2,1.2-3.7,1.1
			c-1.1-0.1-1.8-0.2-2.2-0.7c-0.4-0.4-0.7-0.9-0.8-1.4s-0.1-1.1,0.1-1.7c0.1-0.6,0.2-1.1,0.4-1.5c0.6-2.5,0.9-5.1,1.1-7.6
			c0.2-2.5,0.2-5.1,0.2-7.6s0-5.1,0-7.6s0.1-5.1,0.4-7.6c0.1-0.4,0.1-0.9-0.1-1.4c-0.1-0.5-0.1-0.9,0.1-1.4c0.2-0.6,0.3-1.2,0.4-1.9
			c0.1-0.7,0.2-1.4,0.4-2c0.2-0.6,0.6-1.1,1-1.5c0.5-0.4,1.2-0.5,2.4-0.3c1.1,0.1,1.8,0.4,2.2,0.8c0.4,0.4,0.7,1,0.8,1.6
			c0.1,0.6,0.1,1.3,0,2s-0.1,1.4-0.1,2c0,1,0,2.2-0.1,3.6c-0.1,1.4-0.1,2.7-0.1,4c0,1.2-0.1,2.3-0.1,3.2
			C445.2,245,445.2,245.4,445.3,245.4z"/>
	</g>
	<polyline class="st1" points="61.5,442.5 277.1,442.5 451.5,442.5 	"/>
	<polyline class="st1" points="60,54.5 275.6,54.5 450,54.5 	"/>
	<polyline class="st1" points="449.7,52.5 449.7,268.1 449.7,442.5 	"/>
	<polyline class="st1" points="61.5,54 61.5,269.6 61.5,444 	"/>
</g>
</svg>
