<?xml version="1.0" encoding="utf-8"?>
<!-- Generator: Adobe Illustrator 23.1.0, SVG Export Plug-In . SVG Version: 6.00 Build 0)  -->
<svg version="1.1" id="Layer_1" xmlns="http://www.w3.org/2000/svg" xmlns:xlink="http://www.w3.org/1999/xlink" x="0px" y="0px"
	 viewBox="0 0 150 150" style="enable-background:new 0 0 150 150;" xml:space="preserve">
<style type="text/css">
	.st0{fill:#FEC24A;}
	.st1{fill:none;stroke:#000000;stroke-width:2.4403;stroke-miterlimit:10;}
</style>
<g>
	<rect x="26.7" y="25.9" transform="matrix(0.866 -0.5 0.5 0.866 -27.6631 48.5245)" class="st0" width="100.1" height="100.1"/>
	<g>
		<path d="M27.5,71.9c0,1.4-0.4,2.5-1.1,3.3c-0.7,0.8-1.7,1.3-2.8,1.3c-0.7,0-1.3-0.1-1.8-0.4c-0.4-0.2-0.7-0.5-0.7-0.8v0
			c0-0.2,0.1-0.4,0.2-0.5c0.1-0.2,0.3-0.2,0.5-0.2c0.1,0,0.3,0.1,0.7,0.3c0.4,0.2,0.8,0.3,1.1,0.3c0.7,0,1.2-0.3,1.7-0.8
			S26,72.8,26,72c0-0.9-0.3-1.6-1-2.1c-0.7-0.5-1.5-0.8-2.6-0.8c-0.3,0-0.8,0-1.4,0.1c0.1,1.5,0.1,2.6,0.1,3.4c0,1.7,0,3.2-0.1,4.5
			c-0.1,1.6-0.3,3-0.6,4.2c-0.1,0.4-0.3,0.6-0.7,0.6c-0.5,0-0.8-0.4-0.8-1.1c0,0.1,0.1-1.1,0.4-3.5c0.1-0.8,0.1-1.9,0.1-3.2
			c0-1.8,0-3.3-0.1-4.5c-0.3,0.2-0.7,0.5-1.2,0.9C18,70.8,17.7,71,17.5,71c-0.2,0-0.4-0.1-0.5-0.2c-0.2-0.2-0.2-0.3-0.2-0.5
			c0-0.2,0.2-0.5,0.6-0.9c1.2-1.2,2.8-1.7,4.7-1.7c1.6,0,2.9,0.4,3.9,1.2S27.5,70.5,27.5,71.9z"/>
		<path d="M43.6,81.2c0,0.5-0.2,0.7-0.7,0.7c-0.3,0-0.7-0.3-1.1-0.9c-0.3-0.5-0.8-1.4-1.4-2.7c-1.9,0-4-0.5-6.4-1.3
			c-1.9,2-3.2,3-3.9,3c-0.2,0-0.3-0.1-0.5-0.2c-0.1-0.1-0.2-0.3-0.2-0.5c0-0.2,0.2-0.4,0.5-0.7c0.3-0.3,0.7-0.5,1-0.8
			c0.6-0.5,1.1-0.9,1.6-1.5c-0.9-0.3-1.3-0.7-1.3-1.1c0-0.2,0.1-0.4,0.2-0.5c0.1-0.1,0.3-0.2,0.5-0.2c0.2,0,0.4,0.1,0.7,0.2
			c0.5,0.2,0.8,0.4,0.9,0.4c2-2.7,3.1-4.6,3.4-5.9c0.1-0.4,0.1-0.8,0.2-1.3c0.1-0.3,0.3-0.5,0.7-0.5c0.3,0,0.5,0.1,0.6,0.4
			c0.1,0.2,0.1,0.4,0.1,0.7c0,0.4,0.1,0.6,0.1,0.8c0.5,2,1.4,4.4,2.7,7.4c0.2,0,0.4,0,0.7,0l0.3,0c0.5,0,0.8,0.3,0.8,0.8
			c0,0.5-0.3,0.8-0.9,0.8h-0.2c0.2,0.4,0.5,1,1,1.9C43.5,80.6,43.6,81,43.6,81.2z M39.7,76.7c-0.8-1.8-1.5-3.6-2.1-5.6
			c-0.7,1.6-1.6,3.1-2.7,4.5C36.5,76.2,38.1,76.6,39.7,76.7z"/>
		<path d="M59.7,80.5c0,0.4-0.2,0.7-0.6,1.1v0c-0.4,0.3-0.9,0.5-1.6,0.5c-0.9,0-1.5-0.2-1.9-0.5c-0.1-0.1-0.3-0.2-0.5-0.5
			c-0.3-0.3-0.5-0.5-0.5-0.6c-1.6-1.7-2.6-2.7-3.2-3c-0.3-0.1-0.5-0.2-0.8-0.3c-0.3-0.1-0.4-0.3-0.4-0.6c0-0.5,0.4-0.7,1.2-0.8
			c0.8-0.1,1.5-0.4,2.1-1c0.5-0.6,0.8-1.4,0.8-2.3c0-2.1-1.3-3.1-3.8-3.1h-0.1c-0.6,2.7-1,5.5-1,8.6c0,0.5,0,1.1,0,1.7
			c0,0.6,0,0.9,0,1c0,0.7-0.2,1.1-0.7,1.1c-0.4,0-0.6-0.2-0.8-0.7c-0.1-0.4-0.1-1.2-0.1-2.4c0-3.6,0.3-6.7,0.9-9.1
			c-1.8,0.3-2.8,0.5-3,0.5c-0.7,0-1.1-0.3-1.1-0.8c0-0.3,0.1-0.5,0.4-0.7c0.2-0.1,0.3-0.1,0.6-0.1c0.2,0,0.4,0,0.6,0
			c0.2,0,0.8-0.1,1.9-0.3c0.8-0.1,1.6-0.2,2.2-0.2c3.7,0,5.5,1.5,5.5,4.5c0,0.9-0.3,1.8-0.8,2.6C54.7,75.9,54,76.5,53,77
			c0.7,0.6,1.4,1.2,2.1,1.9c0.8,0.9,1.2,1.3,1.3,1.3c0.3,0.2,0.7,0.3,1.2,0.3c0.3,0,0.5,0,0.5-0.1c0.2-0.2,0.3-0.3,0.5-0.5
			c0.2-0.2,0.3-0.2,0.5-0.2c0.2,0,0.3,0.1,0.4,0.2C59.7,80.1,59.7,80.3,59.7,80.5z"/>
		<path d="M72.3,81.4c0,0.2-0.1,0.4-0.2,0.5c-0.1,0.1-0.3,0.2-0.5,0.2c-0.3,0-0.5-0.1-0.6-0.3c-0.2-0.2-0.4-0.6-0.8-1.3
			c-0.4-0.7-0.8-1.2-1.1-1.7c-1.4-1.7-2.8-3-4.3-3.7c-0.6,0.4-1.1,0.7-1.4,0.9c-0.2,2.2-0.4,3.8-0.6,4.7c-0.3,1-0.7,1.5-1.2,1.5
			c-0.2,0-0.3-0.1-0.4-0.2c-0.1-0.1-0.2-0.3-0.2-0.5c0-0.1,0-0.4,0.1-0.6c0.1-0.4,0.2-0.7,0.2-0.7c0.4-1.9,0.6-4,0.6-6.4
			c0-1.2-0.1-2.3-0.2-3.5c-0.1-1.2-0.2-1.7-0.2-1.7c0-0.6,0.3-0.9,0.8-0.9c0.5,0,0.8,0.5,1,1.5c0.1,0.5,0.1,2.1,0.1,4.9
			c2.3-1.6,4.2-3.3,5.6-5.1c0.5-0.6,0.8-1,0.8-1c0.2-0.3,0.5-0.4,0.7-0.4c0.4,0,0.6,0.2,0.6,0.6c0,1.1-1.7,2.9-5,5.7
			c1.3,0.8,2.5,1.8,3.5,2.9c0.9,1,1.6,1.9,2.1,2.8C72,80.7,72.3,81.2,72.3,81.4z"/>
		<path d="M86.6,68.9c0-0.2,0,0.5-0.1,2s-0.1,3.1-0.1,4.7c0,1.2,0,2.4,0,3.5c0,1.1,0,1.6,0,1.4c0,0.8-0.3,1.1-0.8,1.1
			c-0.3,0-0.5-0.1-0.6-0.3c-0.1-0.1-0.1-0.4-0.1-0.7c0-0.4,0-0.9,0-1.8v-3.4c-0.6,0-1.4,0-2.5,0c-2,0-3.5,0-4.5-0.1
			c-0.1,1.2-0.1,2.3-0.1,3.4c0,0.3,0,0.7,0,1c0,0.4,0,0.6,0,0.6c0,0.5-0.1,0.9-0.2,1.1c-0.1,0.2-0.3,0.3-0.6,0.3
			c-0.3,0-0.5-0.1-0.6-0.3c-0.1-0.2-0.2-0.5-0.2-1c0-1,0-2.7,0.1-5.3c-0.3-0.2-0.5-0.4-0.5-0.6c0-0.4,0.2-0.6,0.6-0.7
			c0.1-1.4,0.2-3,0.3-4.8c0.1-0.6,0.4-1,0.9-1c0.5,0,0.7,0.3,0.7,0.9c0,0.1,0,0.5-0.1,1.4c-0.1,1.1-0.2,2.3-0.2,3.4
			c0.6,0,1.4,0,2.6,0c1.5,0,3,0,4.4-0.1c0-2.6,0.1-4.3,0.1-4.9c0.1-0.7,0.3-1.1,0.8-1.1C86.3,67.8,86.6,68.2,86.6,68.9z"/>
		<path d="M101.3,68.6c0,0.4-0.4,1.1-1.1,2.2c-1.3,2.1-2.9,3.8-4.6,5.1l0,0v0.9c0,0.4,0,1,0,1.6c0,0.6,0,1,0,1.2c0,1,0,1.7-0.1,2
			c-0.1,0.4-0.4,0.7-0.7,0.7c-0.5,0-0.7-0.4-0.7-1.2c0,0,0-0.4,0-1.1c0-0.7,0-1.3,0-2v-1.9c-0.8-0.7-1.6-1.9-2.5-3.6
			c-1-1.8-1.5-3.2-1.5-4c0-0.5,0.2-0.8,0.7-0.8c0.3,0,0.5,0.1,0.6,0.3c0.1,0.2,0.2,0.4,0.3,0.9c0.1,0.5,0.2,0.9,0.3,1.1
			c0.6,1.7,1.6,3.3,2.8,4.6c1.7-1.4,3.2-3.3,4.5-5.5c0.2-0.3,0.4-0.7,0.6-1c0.2-0.3,0.4-0.4,0.6-0.4s0.4,0.1,0.6,0.2
			C101.3,68.2,101.3,68.4,101.3,68.6z"/>
		<path d="M113.7,79.5c0,0.4-0.5,0.8-1.5,1.2c-1,0.4-2.1,0.6-3.5,0.7c-0.8,0.1-2,0.1-3.5,0.1c-0.6,0-0.9,0-1.1-0.1
			c-0.5-0.1-0.7-0.3-0.7-0.7c0-0.2,0.1-0.4,0.2-0.5c0.1-0.1,0.3-0.2,0.5-0.2h0.7c0.2-1.2,0.4-3.8,0.4-7.8c0-0.2,0-1.1,0-2.8
			c-0.2,0-0.3,0-0.5,0c-0.2,0-0.3,0-0.3,0c-0.5,0-0.8-0.2-0.8-0.7c0-0.3,0.1-0.5,0.4-0.6c0.3-0.1,0.7-0.2,1.3-0.2
			c2.6,0,4.6,0.2,6.2,0.7c1,0.3,1.5,0.7,1.5,1.1c0,0.2-0.1,0.3-0.2,0.5c-0.1,0.1-0.3,0.2-0.4,0.2c-0.1,0-0.3-0.1-0.6-0.2
			c-0.4-0.2-0.7-0.3-0.9-0.3c-0.7-0.2-2.1-0.3-4.2-0.5c0,0.9,0,2.4,0,4.4c0.6,0,1.2,0.1,1.8,0.1c0.4,0,0.8,0,1.2,0
			c0.4,0,0.7,0,0.7,0c0.5,0,0.8,0.2,0.8,0.7c0,0.4-0.2,0.6-0.7,0.7c-0.3,0.1-1,0.1-2.1,0.1c-0.6,0-1.2,0-1.8,0
			c0,2.3-0.1,3.9-0.3,4.7h0.3c2,0,3.5-0.2,4.5-0.5c0.3-0.1,0.7-0.3,1.2-0.5c0.4-0.2,0.7-0.3,0.9-0.3c0.2,0,0.3,0.1,0.5,0.2
			C113.7,79.2,113.7,79.3,113.7,79.5z"/>
		<path d="M126,69.3c0,0.3-0.1,0.5-0.2,0.6c-0.1,0.2-0.3,0.2-0.6,0.2c0,0-0.1,0-0.3-0.1c-0.2-0.1-0.5-0.1-0.7-0.2
			c0.4,1.9,0.6,3.5,0.6,4.8c0,2.3-0.4,4.1-1.3,5.3c-0.9,1.2-2.1,1.8-3.7,1.8c-1.1,0-2-0.4-2.6-1.1c-0.6-0.7-0.9-1.7-0.9-3
			c0-0.9,0.3-1.4,0.8-1.4c0.3,0,0.5,0.1,0.6,0.3s0.2,0.5,0.2,1c0,0.1,0,0.1,0,0.2s0,0.1,0,0.2c0,1.6,0.7,2.4,2.1,2.4
			c1.1,0,1.9-0.5,2.5-1.4c0.6-0.9,0.9-2.2,0.9-3.9c0-1.7-0.2-3.4-0.7-5.2c-0.6-0.1-1.1-0.2-1.6-0.2c-0.4,0-0.8,0.1-1.3,0.2
			c-0.5,0.1-0.8,0.2-1,0.2c-0.5,0-0.7-0.3-0.7-0.8c0-0.3,0.3-0.5,0.9-0.7c0.6-0.2,1.4-0.3,2.5-0.3c1.4,0,2.7,0.2,3.9,0.5
			C125.7,68.7,126,68.9,126,69.3z"/>
		<path d="M134.1,80.8c0,0.4-0.2,0.8-0.7,1s-1.2,0.4-2,0.4c-0.9,0-1.5-0.1-2-0.3s-0.7-0.4-0.7-0.8c0-0.5,0.2-0.8,0.7-0.8
			c0.1,0,0.3,0,0.5,0.1c0.3,0.1,0.6,0.2,0.7,0.2c0.2-2,0.3-3.7,0.3-5c0-2.2-0.3-4.2-0.8-6c-0.2,0-0.5,0.1-0.8,0.2
			c-0.3,0.1-0.4,0.1-0.5,0.1c-0.2,0-0.3-0.1-0.4-0.2s-0.2-0.3-0.2-0.5c0-0.7,0.8-1.1,2.3-1.1c1,0,1.8,0.1,2.4,0.4
			c0.6,0.3,0.8,0.6,0.8,1.1c0,0.4-0.2,0.6-0.5,0.6c-0.1,0-0.3,0-0.6-0.1c-0.4-0.1-0.7-0.2-1-0.3c0.5,1.8,0.8,3.8,0.8,5.8
			c0,1.3-0.1,3-0.3,5.1c0.2-0.1,0.5-0.2,0.8-0.3c0.3-0.1,0.5-0.2,0.6-0.2c0.2,0,0.3,0.1,0.4,0.2C134,80.5,134.1,80.6,134.1,80.8z"/>
	</g>
	<line class="st1" x1="14.9" y1="9.5" x2="14.9" y2="121.1"/>
	<line class="st1" x1="139.3" y1="29" x2="139.3" y2="140.7"/>
	<line class="st1" x1="119.5" y1="136.1" x2="7.9" y2="136.1"/>
	<line class="st1" x1="143.9" y1="14.1" x2="32.3" y2="14.1"/>
</g>
</svg>
